SplineFontDB: 3.2
FontName: MFEKSans-Regular
FullName: MFEK Sans Regular
FamilyName: MFEK Sans
Weight: Regular
Copyright: 
Version: 0.1
ItalicAngle: -13
UnderlinePosition: -200
UnderlineWidth: 100
Ascent: 1600
Descent: 400
InvalidEm: 0
LayerCount: 2
Layer: 0 0 "Back" 1
Layer: 1 0 "Fore" 0
XUID: [1021 31 -699969567 16487490]
FSType: 0
OS2Version: 0
OS2_WeightWidthSlopeOnly: 0
OS2_UseTypoMetrics: 1
CreationTime: 1460762150
ModificationTime: 1696436626
PfmFamily: 33
TTFWeight: 400
TTFWidth: 1
LineGap: 0
VLineGap: 0
OS2TypoAscent: 2500
OS2TypoAOffset: 0
OS2TypoDescent: -850
OS2TypoDOffset: 0
OS2TypoLinegap: 0
OS2WinAscent: 2500
OS2WinAOffset: 0
OS2WinDescent: 850
OS2WinDOffset: 0
HheadAscent: 2500
HheadAOffset: 0
HheadDescent: -850
HheadDOffset: 0
OS2CapHeight: 1500
OS2XHeight: 1040
OS2FamilyClass: 2053
OS2Vendor: 'it* '
OS2UnicodeRanges: 00000001.00000000.00000000.00000000
Lookup: 258 0 0 "kerning yeah boi" { "say cheese" [300,0,4] } ['kern' ('DFLT' <'dflt' > 'grek' <'dflt' > 'latn' <'dflt' > ) ]
MarkAttachClasses: 1
DEI: 91125
KernClass2: 30 23 "say cheese"
 73 A Agrave Aacute Acircumflex Atilde Adieresis Aring Amacron Abreve Aogonek
 96 D O Ograve Oacute Ocircumflex Otilde Odieresis Oslash Dcaron Dcroat Omacron Obreve Ohungarumlaut
 81 E AE Egrave Eacute Ecircumflex Edieresis Emacron Ebreve Edotaccent Eogonek Ecaron
 1 F
 39 G Gcircumflex Gbreve Gdotaccent uni0122
 104 J U Ugrave Uacute Ucircumflex Udieresis IJ Jcircumflex Utilde Umacron Ubreve Uring Uhungarumlaut Uogonek
 11 K X uni0136
 23 L Lacute uni013B Lslash
 1 P
 1 Q
 23 R Racute uni0156 Rcaron
 36 S Sacute Scircumflex Scedilla Scaron
 21 T uni0162 Tcaron Tbar
 1 V
 53 W Wcircumflex Wgrave Wacute Wdieresis uni1E86 uni1E88
 30 Y Ycircumflex Ydieresis Ygrave
 26 Z Zacute Zdotaccent Zcaron
 73 a agrave aacute acircumflex atilde adieresis aring amacron abreve aogonek

StartChar: ampersand
Encoding: 38 38 0
Width: 555
VWidth: 1920
Flags: HMW
LayerCount: 2
Fore
SplineSet
354 21 m 2
 334 1036 l 2
 332 1126 326 1175 341 1241 c 0
 362 1331 418 1405 522 1405 c 0
 626 1405 654 1336 630 1231 c 0
 598 1094 506 1013 343 948 c 0
 202 892 144 826 116 704 c 0
 107 665 103 570 106 503 c 2
 115 236 l 2
 119 107 107 25 177 25 c 0
 293 25 449 354 519 638 c 0
 521 646 527 651 533 651 c 2
 534 651 l 2
 540 651 543 645 541 636 c 0
 469 341 314 -5 170 -5 c 0
 82 -5 88 75 83 249 c 2
 77 489 l 2
 75 578 73 646 86 704 c 0
 122 858 208 916 345 975 c 0
 497 1041 570 1099 599 1226 c 0
 622 1326 598 1375 515 1375 c 0
 437 1375 388 1316 371 1241 c 0
 357 1181 364 1087 365 1056 c 2
 384 21 l 2
 384 5 376 -3 368 -3 c 2
 366 -3 l 2
 358 -3 354 5 354 21 c 2
EndSplineSet
EndChar

StartChar: period
Encoding: 46 46 1
Width: 275
VWidth: 1920
Flags: HMW
LayerCount: 2
Fore
SplineSet
19 -3 m 262
 15 -3 l 262
 2 -3 -5 6 -2 18 c 262
 38 192 l 262
 41 204 52 213 65 213 c 262
 69 213 l 262
 82 213 87 204 84 192 c 262
 44 18 l 262
 41 6 32 -3 19 -3 c 262
EndSplineSet
EndChar

StartChar: zero
Encoding: 48 48 2
Width: 380
VWidth: 1920
Flags: HMW
LayerCount: 2
Fore
SplineSet
4 244 m 258
 215 1155 l 258
 253 1318 283 1405 394 1405 c 260
 505 1405 497 1318 459 1155 c 258
 248 244 l 258
 210 81 180 -5 69 -5 c 256
 -42 -5 -34 81 4 244 c 258
37 254 m 258
 8 130 -11 25 76 25 c 260
 163 25 192 130 221 254 c 258
 426 1145 l 258
 455 1269 474 1375 387 1375 c 260
 300 1375 271 1269 242 1145 c 258
 37 254 l 258
EndSplineSet
EndChar

StartChar: one
Encoding: 49 49 3
Width: 232
VWidth: 1920
Flags: HMW
LayerCount: 2
Fore
SplineSet
310 1400 m 260
 315 1408 320 1420 326 1438 c 260
 329 1446 332 1450 337 1450 c 262
 338 1450 l 262
 344 1450 345 1445 343 1436 c 262
 15 16 l 262
 12 3 7 -3 -4 -3 c 262
 -5 -3 l 262
 -16 -3 -18 3 -15 16 c 262
 299 1377 l 262
 302 1388 307 1395 310 1400 c 260
EndSplineSet
EndChar

StartChar: two
Encoding: 50 50 4
Width: 357
VWidth: 1920
Flags: HMW
LayerCount: 2
Fore
SplineSet
-30 130 m 258
 51 482 292 668 361 967 c 258
 401 1138 l 258
 444 1323 444 1375 382 1375 c 256
 312 1375 275 1270 245 1140 c 258
 173 827 l 2
 170 814 163 809 156 809 c 2
 154 809 l 2
 147 809 140 814 143 827 c 2
 215 1140 l 258
 257 1321 305 1405 389 1405 c 256
 478 1405 477 1340 430 1135 c 258
 400 1005 l 258
 317 647 77 460 5 150 c 258
 -23 30 l 257
 178 30 l 6
 188 30 194 25 192 16 c 6
 191 14 l 6
 189 5 181 0 171 0 c 6
 -35 0 l 2
 -54 0 -58 6 -54 25 c 2
 -30 130 l 258
EndSplineSet
EndChar

StartChar: three
Encoding: 51 51 5
Width: 408
VWidth: 1920
Flags: HMW
LayerCount: 2
Fore
SplineSet
49 410 m 2
 51 410 l 2
 61 410 62 402 60 392 c 2
 8 164 l 2
 -13 74 11 25 91 25 c 0
 166 25 215 71 239 176 c 2
 328 564 l 2
 348 649 340 700 237 700 c 2
 217 700 l 6
 197 700 190 704 192 714 c 2
 192 716 l 2
 194 725 204 730 224 730 c 6
 234 730 l 2
 322 730 351 772 369 852 c 2
 459 1243 l 2
 479 1328 470 1375 397 1375 c 0
 327 1375 293 1321 271 1225 c 2
 211 966 l 2
 208 954 201 949 192 949 c 2
 190 949 l 2
 181 949 178 954 181 966 c 2
 241 1225 l 2
 268 1342 310 1405 404 1405 c 0
 498 1405 516 1356 489 1241 c 2
 403 869 l 2
 374 744 327 710 229 710 c 1
 242 723 l 1
 365 723 384 676 355 551 c 2
 268 174 l 2
 240 54 188 -5 84 -5 c 0
 -17 -5 -48 50 -22 164 c 2
 30 392 l 2
 32 402 39 410 49 410 c 2
EndSplineSet
EndChar

StartChar: four
Encoding: 52 52 6
Width: 425
VWidth: 1920
Flags: HMW
LayerCount: 2
Fore
SplineSet
364 421 m 2
 364 419 l 2
 362 409 352 405 343 405 c 2
 263 405 l 257
 172 15 l 6
 169 4 162 -3 154 -3 c 6
 152 -3 l 6
 144 -3 139 4 142 15 c 6
 233 405 l 257
 8 405 l 2
 -1 405 -6 409 -4 418 c 2
 -4 420 l 2
 -3 424 0 431 2 435 c 2
 472 1395 l 2
 474 1399 477 1403 483 1403 c 2
 484 1403 l 2
 489 1403 492 1399 490 1391 c 2
 269 435 l 257
 349 435 l 2
 358 435 366 431 364 421 c 2
239 435 m 257
 430 1260 l 257
 26 435 l 257
 239 435 l 257
EndSplineSet
EndChar

StartChar: five
Encoding: 53 53 7
Width: 366
VWidth: 1920
Flags: HMW
LayerCount: 2
Fore
SplineSet
50 367 m 2
 52 367 l 2
 60 367 64 358 62 350 c 0
 0 81 12 25 64 25 c 0
 128 25 167 133 210 319 c 2
 277 612 l 2
 328 832 328 908 286 908 c 0
 241 908 204 833 156 673 c 0
 152 659 146 650 131 650 c 2
 130 650 l 2
 118 650 113 657 118 675 c 2
 315 1380 l 2
 319 1394 324 1400 335 1400 c 2
 515 1400 l 2
 532 1400 539 1399 537 1390 c 2
 537 1389 l 2
 535 1380 517 1370 432 1370 c 2
 341 1370 l 1
 152 690 l 1
 144 690 l 1
 177 802 223 938 293 938 c 0
 368 938 364 854 304 596 c 2
 234 294 l 2
 184 76 138 -5 57 -5 c 0
 -20 -5 -39 41 32 349 c 0
 34 358 41 367 50 367 c 2
EndSplineSet
EndChar

StartChar: six
Encoding: 54 54 8
Width: 421
VWidth: 1920
Flags: HMW
LayerCount: 2
Fore
SplineSet
280 764 m 256
 200 764 144 687 123 595 c 258
 115 560 l 257
 119 610 l 257
 145 722 199 794 287 794 c 256
 375 794 393 734 357 577 c 258
 271 204 l 258
 239 65 199 -5 93 -5 c 256
 -45 -5 -25 84 17 264 c 258
 215 1121 l 258
 261 1321 296 1405 404 1405 c 256
 512 1405 501 1322 471 1190 c 258
 421 975 l 2
 418 961 414 947 402 947 c 2
 400 947 l 2
 388 947 388 961 391 975 c 2
 441 1190 l 258
 469 1311 476 1375 397 1375 c 256
 320 1375 288 1308 244 1118 c 258
 35 211 l 258
 6 86 6 25 100 25 c 256
 180 25 214 88 242 208 c 258
 327 577 l 258
 360 719 342 764 280 764 c 256
EndSplineSet
EndChar

StartChar: seven
Encoding: 55 55 9
Width: 334
VWidth: 1920
Flags: HMW
LayerCount: 2
Fore
SplineSet
501 1381 m 2
 2 14 l 6
 -2 4 -10 -3 -19 -3 c 6
 -21 -3 l 6
 -30 -3 -31 5 -28 14 c 6
 472 1370 l 257
 238 1370 l 2
 226 1370 221 1375 223 1384 c 2
 223 1386 l 2
 225 1395 233 1400 245 1400 c 2
 488 1400 l 2
 499 1400 506 1396 501 1381 c 2
EndSplineSet
EndChar

StartChar: eight
Encoding: 56 56 10
Width: 396
VWidth: 1920
Flags: HMW
LayerCount: 2
Fore
SplineSet
83 25 m 256
 158 25 186 68 210 171 c 258
 299 554 l 258
 318 638 322 692 237 692 c 256
 152 692 132 638 113 554 c 258
 24 171 l 258
 0 68 8 25 83 25 c 256
244 722 m 256
 299 722 337 764 357 852 c 258
 447 1243 l 258
 468 1336 448 1375 394 1375 c 256
 340 1375 302 1336 281 1243 c 258
 191 852 l 258
 171 764 189 722 244 722 c 256
257 712 m 257
 347 712 352 652 325 536 c 258
 241 174 l 258
 212 50 180 -5 76 -5 c 256
 -28 -5 -34 50 -5 174 c 258
 79 536 l 258
 106 652 136 712 226 712 c 257
 225 702 l 257
 163 705 137 749 165 869 c 258
 251 1241 l 258
 277 1352 317 1405 401 1405 c 256
 485 1405 503 1352 477 1241 c 258
 391 869 l 258
 363 749 318 705 254 702 c 257
 257 712 l 257
EndSplineSet
EndChar

StartChar: nine
Encoding: 57 57 11
Width: 406
VWidth: 1920
Flags: HMW
LayerCount: 2
Fore
SplineSet
217 636 m 256
 297 636 353 713 374 805 c 258
 382 840 l 257
 378 790 l 257
 352 678 298 606 210 606 c 256
 122 606 104 666 140 823 c 258
 226 1196 l 258
 258 1335 298 1405 404 1405 c 256
 542 1405 522 1316 480 1136 c 258
 282 279 l 258
 236 79 193 -5 85 -5 c 256
 -23 -5 -28 78 2 210 c 258
 52 425 l 2
 55 439 62 453 73 453 c 6
 75 453 l 6
 86 453 85 439 82 425 c 2
 32 210 l 258
 4 89 13 25 92 25 c 256
 169 25 209 92 253 282 c 258
 463 1189 l 258
 492 1314 491 1375 397 1375 c 256
 317 1375 283 1312 255 1192 c 258
 170 823 l 258
 137 681 155 636 217 636 c 256
EndSplineSet
EndChar

StartChar: A
Encoding: 65 65 12
Width: 393
VWidth: 960
Flags: HMW
AnchorPoint: "ogonek" 210 0 basechar 0
AnchorPoint: "bottom" 67 0 basechar 0
AnchorPoint: "top" 394 1400 basechar 0
LayerCount: 2
Fore
SplineSet
81 475 m 261
 278 475 l 261
 271 445 l 261
 74 445 l 261
 81 475 l 261
381 1345 m 261
 -51 15 l 262
 -55 3 -61 -4 -70 -4 c 262
 -71 -4 l 262
 -80 -4 -82 3 -78 15 c 262
 367 1387 l 262
 370 1396 379 1404 391 1404 c 262
 398 1404 l 262
 410 1404 414 1396 413 1388 c 262
 238 15 l 262
 236 2 232 -4 218 -4 c 262
 217 -4 l 262
 203 -4 200 1 202 15 c 262
 381 1345 l 261
EndSplineSet
EndChar

StartChar: B
Encoding: 66 66 13
Width: 389
VWidth: 960
Flags: HMW
AnchorPoint: "top" 395 1400 basechar 0
AnchorPoint: "bottom" 72 0 basechar 0
LayerCount: 2
Fore
SplineSet
153 725 m 257
 234 725 l 258
 303 725 355 802 387 942 c 258
 432 1134 l 258
 469 1294 462 1370 383 1370 c 258
 302 1370 l 257
 153 725 l 257
247 715 m 257
 336 715 372 655 332 481 c 258
 282 264 l 258
 236 64 176 0 82 0 c 258
 -19 0 l 262
 -34 0 -41 10 -38 25 c 262
 273 1375 l 258
 276 1390 289 1400 304 1400 c 258
 395 1400 l 258
 489 1400 504 1317 461 1132 c 258
 417 939 l 258
 384 794 325 710 236 710 c 257
 247 715 l 257
232 695 m 258
 146 695 l 257
 -7 30 l 257
 79 30 l 258
 173 30 214 96 254 271 c 258
 299 468 l 258
 335 623 317 695 232 695 c 258
EndSplineSet
EndChar

StartChar: C
Encoding: 67 67 14
Width: 420
VWidth: 960
Flags: HMW
AnchorPoint: "top" 409 1400 basechar 0
AnchorPoint: "bottom" 106 0 basechar 0
LayerCount: 2
Fore
SplineSet
381 603 m 256
 372 563 363 525 355 490 c 0
 262 95 222 -5 78 -5 c 256
 -61 -5 -35 129 18 359 c 258
 176 1042 l 258
 234 1292 304 1405 408 1405 c 256
 510.148973592 1405 510.467430805 1257.26121762 470.175411977 1103.00000463 c 0
 448.009736597 1018.13694564 413.55377601 931.299949376 377 866 c 256
 374.986032133 862.40223216 370 854 363 854 c 258
 362 854 l 258
 355 854 356.139648438 862.3203125 358 866 c 256
 491 1129 510 1375 401 1375 c 256
 322 1375 251 1241 206 1046 c 258
 47 354 l 258
 4 169 -27 25 85 25 c 256
 212 25 246 137 351 603 c 256
 352 607 355 615 366 615 c 258
 367 615 l 258
 380 615 382 607 381 603 c 256
EndSplineSet
EndChar

StartChar: D
Encoding: 68 68 15
Width: 406
VWidth: 960
Flags: HMW
AnchorPoint: "top" 380 1400 basechar 0
AnchorPoint: "bottom" 42 0 basechar 0
LayerCount: 2
Fore
SplineSet
53 0 m 258
 -19 0 l 258
 -34 0 -41 10 -38 25 c 262
 273 1375 l 258
 276 1390 289 1400 304 1400 c 258
 376 1400 l 258
 499 1400 527 1275 469 1022 c 258
 318 369 l 258
 260 116 196 0 53 0 c 258
60 30 m 258
 184 30 239 155 287 364 c 258
 440 1026 l 258
 488 1235 472 1370 369 1370 c 258
 302 1370 l 257
 -7 30 l 257
 60 30 l 258
EndSplineSet
EndChar

StartChar: E
Encoding: 69 69 16
Width: 370
VWidth: 960
Flags: HMW
AnchorPoint: "ogonek" 180 0 basechar 0
AnchorPoint: "top" 395 1400 basechar 0
AnchorPoint: "bottom" 72 0 basechar 0
LayerCount: 2
Fore
SplineSet
152 720 m 257
 287 720 l 262
 299 720 304 716 302 708 c 262
 302 707 l 262
 300 699 293 695 281 695 c 262
 146 695 l 257
 -7 30 l 257
 213 30 l 258
 224 30 230 24 228 16 c 258
 227 14 l 258
 225 6 217 0 206 0 c 258
 -19 0 l 258
 -34 0 -41 10 -38 25 c 258
 273 1375 l 258
 276 1390 289 1400 304 1400 c 258
 517 1400 l 258
 529 1400 536 1395 534 1386 c 258
 534 1384 l 258
 532 1374 522 1370 510 1370 c 258
 302 1370 l 257
 152 720 l 257
EndSplineSet
EndChar

StartChar: F
Encoding: 70 70 17
Width: 326
VWidth: 960
Flags: HMW
AnchorPoint: "top" 375 1400 basechar 0
AnchorPoint: "bottom" 52 0 basechar 0
LayerCount: 2
Fore
SplineSet
152 720 m 257
 292 720 l 258
 304 720 309 716 307 708 c 258
 307 707 l 258
 305 699 298 695 286 695 c 258
 146 695 l 257
 -11 15 l 262
 -14 4 -19 -3 -29 -3 c 262
 -31 -3 l 262
 -41 -3 -44 4 -41 15 c 262
 273 1375 l 258
 276 1390 289 1400 304 1400 c 258
 491 1400 l 258
 505 1400 511 1395 509 1386 c 258
 509 1384 l 258
 507 1375 498 1370 484 1370 c 258
 302 1370 l 257
 152 720 l 257
EndSplineSet
EndChar

StartChar: G
Encoding: 71 71 18
Width: 420
VWidth: 960
Flags: HMW
AnchorPoint: "top" 414 1400 basechar 0
AnchorPoint: "bottom" 92 0 basechar 0
LayerCount: 2
Fore
SplineSet
267 645 m 2
 267 646 l 2
 269 653 274 660 288 660 c 2
 369 660 l 2
 384 660 392 649 389 635 c 2
 245 13 l 2
 242 0 237 -3 233 -3 c 2
 232 -3 l 2
 228 -3 226 0 229 13 c 2
 332 520 l 1
 380 640 l 1
 260 165 192 -5 63 -5 c 0
 -42 -5 -45 89 22 379 c 2
 171 1022 l 2
 229 1272 283 1405 408 1405 c 0
 527 1405 526 1310 484 1124 c 0
 465 1040 448 961 429 877 c 0
 426 865 419 860 412 860 c 2
 410 860 l 2
 403 860 396 865 399 877 c 0
 484 1251 520 1375 401 1375 c 0
 295 1375 247 1221 202 1026 c 2
 51 374 l 2
 -3 139 -15 25 70 25 c 0
 174 25 240 176 359 638 c 1
 363 630 l 1
 281 630 l 2
 267 630 265 638 267 645 c 2
EndSplineSet
EndChar

StartChar: H
Encoding: 72 72 19
Width: 400
VWidth: 960
Flags: HMW
AnchorPoint: "top" 384 1400 basechar 0
AnchorPoint: "bottom" 62 0 basechar 0
LayerCount: 2
Fore
SplineSet
520 1403 m 2
 522 1403 l 2
 533 1403 533 1393 530 1379 c 2
 216 17 l 2
 213 3 204 -3 197 -3 c 2
 195 -3 l 2
 188 -3 183 3 186 17 c 2
 342 695 l 257
 140 695 l 257
 -16 17 l 2
 -19 3 -27 -3 -35 -3 c 2
 -37 -3 l 2
 -45 -3 -49 3 -46 17 c 2
 268 1379 l 18
 271 1393 277 1403 288 1403 c 10
 290 1403 l 18
 301 1403 301 1393 298 1379 c 10
 146 720 l 257
 348 720 l 257
 500 1379 l 2
 503 1393 509 1403 520 1403 c 2
EndSplineSet
EndChar

StartChar: I
Encoding: 73 73 20
Width: 177
VWidth: 960
Flags: HMW
AnchorPoint: "ogonek" -51 0 basechar 0
AnchorPoint: "top" 273 1400 basechar 0
AnchorPoint: "bottom" -51 0 basechar 0
LayerCount: 2
Fore
SplineSet
273 1403 m 10
 275 1403 l 18
 286 1403 285 1389 282 1375 c 10
 -29 25 l 22
 -34 5 -40 -3 -50 -3 c 14
 -52 -3 l 22
 -62 -3 -64 5 -59 25 c 14
 252 1375 l 18
 255 1389 262 1403 273 1403 c 10
EndSplineSet
EndChar

StartChar: J
Encoding: 74 74 21
Width: 315
VWidth: 960
Flags: HMW
AnchorPoint: "top" 431 1400 basechar 0
AnchorPoint: "bottom" 9 0 basechar 0
LayerCount: 2
Fore
SplineSet
424 1405 m 2
 426 1405 l 2
 435 1405 439.462699343 1396.66215181 437 1386 c 2
 179 269 l 258
 130 56 105 -5 16 -5 c 256
 -68 -5 -73.2966955104 77.7117586252 -5 239 c 262
 172 657 l 2
 173.740338651 661.109952294 176 665 181 665 c 2
 182 665 l 2
 187 665 189.723977297 661.115622101 188 657 c 2
 15 244 l 262
 -42.5513321827 106.608669414 -38 25 23 25 c 256
 88 25 107 84 146 254 c 258
 407 1386 l 2
 409.677602451 1397.61320297 415 1405 424 1405 c 2
EndSplineSet
EndChar

StartChar: K
Encoding: 75 75 22
Width: 375
VWidth: 960
Flags: HMW
AnchorPoint: "top" 369 1400 basechar 0
AnchorPoint: "bottom" 46 0 basechar 0
LayerCount: 2
Fore
SplineSet
288 1403 m 10
 290 1403 l 18
 299 1403 302 1394 299 1380 c 10
 -17 15 l 18
 -20 3 -26 -3 -35 -3 c 10
 -37 -3 l 18
 -46 -3 -50 3 -47 15 c 10
 269 1380 l 18
 272 1394 279 1403 288 1403 c 10
206 757 m 257
 238 815 l 257
 224 19 l 258
 224 6 216 -3 205 -3 c 2
 204 -3 l 2
 190 -3 189 6 189 19 c 258
 206 757 l 257
505 1386 m 258
 511 1398 518 1403 525 1403 c 2
 526 1403 l 2
 536 1403 538 1394 533 1383 c 258
 211 715 l 1
 211 723 l 1
 47 385 l 257
 61 460 l 257
 505 1386 l 258
EndSplineSet
EndChar

StartChar: L
Encoding: 76 76 23
Width: 273
VWidth: 960
Flags: HMW
AnchorPoint: "top" 289 1400 basechar 0
AnchorPoint: "bottom" 46 0 basechar 0
LayerCount: 2
Fore
SplineSet
288 1403 m 2
 290 1403 l 2
 301 1403 302 1392 300 1385 c 2
 -13 30 l 281
 127 30 l 6
 138 30 144 26 142 16 c 2
 141 14 l 2
 139 4 131 0 120 0 c 6
 -25 0 l 2
 -39 0 -47 11 -44 25 c 2
 270 1385 l 2
 272 1392 277 1403 288 1403 c 2
EndSplineSet
EndChar

StartChar: M
Encoding: 77 77 24
Width: 511
VWidth: 960
Flags: HMW
AnchorPoint: "top" 459 1400 basechar 0
AnchorPoint: "bottom" 134 0 basechar 0
LayerCount: 2
Fore
SplineSet
266 1260 m 257
 -22 15 l 2
 -24 6 -29 -3 -38 -3 c 2
 -39 -3 l 2
 -48 -3 -49 6 -47 15 c 2
 267 1375 l 2
 270 1390 279 1403 292 1403 c 2
 294 1403 l 2
 305 1403 308 1394 306 1379 c 2
 170 134 l 257
 604 1381 l 2
 609 1395 618 1403 628 1403 c 2
 629 1403 l 2
 641 1403 644 1393 641 1379 c 2
 326 15 l 2
 324 6 319 -3 308 -3 c 2
 306 -3 l 2
 295 -3 294 6 296 15 c 2
 583 1254 l 257
 144 5 l 2
 143 1 141 -2 137 -2 c 2
 136 -2 l 2
 132 -2 130 1 130 5 c 2
 266 1260 l 257
EndSplineSet
EndChar

StartChar: N
Encoding: 78 78 25
Width: 400
VWidth: 960
Flags: HMW
AnchorPoint: "top" 404 1400 basechar 0
AnchorPoint: "bottom" 76 0 basechar 0
LayerCount: 2
Fore
SplineSet
520 1403 m 6
 522 1403 l 6
 533 1403 534 1394 530 1378 c 6
 215 15 l 6
 212 1 207 -3 203 -3 c 6
 202 -3 l 6
 198 -3 193 0 194 15 c 6
 276 1388 l 5
 287 1328 l 261
 -17 15 l 6
 -19 6 -24 -3 -35 -3 c 6
 -37 -3 l 6
 -48 -3 -49 6 -47 15 c 6
 270 1385 l 6
 273 1396 279 1403 287 1403 c 6
 288 1403 l 6
 296 1403 301 1394 300 1383 c 6
 224 76 l 5
 213 136 l 261
 500 1378 l 6
 504 1394 509 1403 520 1403 c 6
EndSplineSet
EndChar

StartChar: O
Encoding: 79 79 26
Width: 415
VWidth: 960
Flags: MW
HStem: -5 30<152.269 263.84> 1375 30<152.269 263.84>
VStem: 55 30<124.451 1276.3> 332 30<131.155 1269.17>
AnchorPoint: "top" 409 1400 basechar 0
AnchorPoint: "bottom" 86 0 basechar 0
LayerCount: 2
Fore
SplineSet
6 309 m 262
 187 1092 l 262
 242 1329 291 1405 412 1405 c 260
 533 1405 548 1328 494 1092 c 262
 313 309 l 262
 258 72 208 -5 87 -5 c 260
 -34 -5 -49 72 6 309 c 262
35 304 m 262
 -11 106 -2 25 94 25 c 260
 190 25 237 107 282 304 c 262
 465 1096 l 262
 510 1293 501 1375 405 1375 c 260
 309 1375 264 1294 218 1096 c 262
 35 304 l 262
EndSplineSet
EndChar

StartChar: P
Encoding: 80 80 27
Width: 355
VWidth: 960
Flags: HMW
AnchorPoint: "top" 365 1400 basechar 0
AnchorPoint: "bottom" -32 0 basechar 0
LayerCount: 2
Fore
SplineSet
302 1370 m 257
 140 665 l 257
 190 665 l 258
 251 665 306 679 348 859 c 258
 418 1161 l 258
 455 1321 423 1370 342 1370 c 258
 302 1370 l 257
324 1400 m 258
 458 1400 492 1351 445 1146 c 258
 382 874 l 258
 335 669 274 635 168 635 c 258
 133 635 l 257
 -11 15 l 6
 -13 6 -17 -4 -29 -4 c 6
 -31 -4 l 6
 -43 -4 -43 6 -41 15 c 6
 273 1375 l 2
 276 1389 290 1400 304 1400 c 2
 324 1400 l 258
EndSplineSet
EndChar

StartChar: Q
Encoding: 81 81 28
Width: 510
VWidth: 960
Flags: HMW
AnchorPoint: "top" 409 1400 basechar 0
AnchorPoint: "bottom" 96 0 basechar 0
LayerCount: 2
Fore
SplineSet
381 18 m 2
 380 15 l 2
 378 7 370 0 364 -2 c 0
 261 -38 220 36 263 179 c 257
 298 294 l 257
 258 119 206 -5 87 -5 c 256
 -52 -5 -37 119 3 294 c 258
 190 1106 l 258
 235 1301 287 1405 412 1405 c 256
 537 1405 542 1301 497 1106 c 258
 282 174 l 258
 258 72 274 -10 369 28 c 0
 374 30 383 26 381 18 c 2
276 279 m 258
 471 1122 l 258
 510 1293 499 1375 405 1375 c 256
 311 1375 263 1293 224 1122 c 258
 29 279 l 258
 -2 144 -15 25 94 25 c 256
 203 25 245 144 276 279 c 258
EndSplineSet
EndChar

StartChar: R
Encoding: 82 82 29
Width: 408
VWidth: 960
Flags: HMW
AnchorPoint: "top" 390 1400 basechar 0
AnchorPoint: "bottom" 68 0 basechar 0
LayerCount: 2
Fore
SplineSet
302 1370 m 261
 152 720 l 261
 217 720 l 262
 282 720 351 779 381 909 c 262
 439 1161 l 262
 467 1281 472 1370 367 1370 c 262
 302 1370 l 261
374 1400 m 262
 498 1400 506 1321 467 1151 c 262
 415 929 l 262
 373 749 283 705 214 705 c 261
 215 710 l 261
 284 710 353 681 325 561 c 262
 249 234 l 262
 222 116 226 64 241 30 c 4
 244 24 245 18 243 9 c 6
 243 8 l 6
 242 2 236 -3 229 -3 c 6
 227 -3 l 6
 218 -3 215 0 213 4 c 4
 194 44 186 90 219 234 c 262
 298 576 l 262
 314 646 286 695 211 695 c 262
 146 695 l 261
 -11 15 l 6
 -13 6 -19 -3 -29 -3 c 6
 -31 -3 l 6
 -41 -3 -43 6 -41 15 c 6
 273 1375 l 6
 277 1391 288 1400 304 1400 c 6
 374 1400 l 262
EndSplineSet
EndChar

StartChar: S
Encoding: 83 83 30
Width: 374
VWidth: 960
Flags: HMW
AnchorPoint: "top" 369 1400 basechar 0
AnchorPoint: "bottom" 56 0 basechar 0
LayerCount: 2
Fore
SplineSet
105 530 m 2
 106 530 l 2
 110 530 113 524 112 520 c 0
 92 434 63.4849418624 338.102605385 41 258 c 0
 -7 87 10 25 66 25 c 256
 119 25 197 88 245 294 c 256
 278 439 241 595 215 712 c 0
 183 855 179 971 224 1166 c 256
 263 1336 307 1405 396 1405 c 256
 478 1405 497.906013155 1323.71353673 426 1150 c 2
 325 906 l 2
 322.026642959 898.816840415 317 895 310 895 c 2
 309 895 l 2
 301 895 298.699458812 903.117719529 300 906 c 0
 337 988 364.8724992 1065.7000704 396 1146 c 0
 465 1324 448 1375 389 1375 c 256
 318 1375 287 1311 254 1166 c 256
 210 976 214 869 247 732 c 0
 276 611 316 472 275 294 c 256
 224 71 134 -5 59 -5 c 256
 -12 -5 -50.660412758 62.2101313321 4 234 c 2
 95 520 l 2
 97.1144465291 526.645403377 101 530 105 530 c 2
EndSplineSet
EndChar

StartChar: T
Encoding: 84 84 31
Width: 369
VWidth: 960
Flags: HMW
AnchorPoint: "top" 387 1400 basechar 0
AnchorPoint: "bottom" 64 0 basechar 0
LayerCount: 2
Fore
SplineSet
230 1400 m 2
 545 1400 l 2
 556 1400 562 1395 560 1386 c 2
 560 1384 l 2
 558 1375 549 1370 538 1370 c 2
 398 1370 l 257
 85 15 l 2
 82 4 75 -3 66 -3 c 2
 61 -3 l 2
 52 -3 47 4 50 15 c 2
 363 1370 l 257
 223 1370 l 2
 212 1370 207 1375 209 1384 c 2
 209 1386 l 2
 211 1395 219 1400 230 1400 c 2
EndSplineSet
EndChar

StartChar: U
Encoding: 85 85 32
Width: 398
VWidth: 960
Flags: HMW
AnchorPoint: "ogonek" 136 20 basechar 0
AnchorPoint: "top" 406 1400 basechar 0
AnchorPoint: "bottom" 83 0 basechar 0
LayerCount: 2
Fore
SplineSet
216 174 m 258
 496 1385 l 6
 498 1395 505 1403 514 1403 c 6
 516 1403 l 6
 525 1403 528 1395 526 1385 c 6
 252 199 l 258
 220 59 164 -5 79 -5 c 256
 4 -5 -40 28 1 204 c 258
 274 1385 l 6
 276 1393 286 1403 295 1403 c 6
 296 1403 l 6
 305 1403 311 1393 309 1385 c 6
 31 184 l 258
 3 64 31 25 86 25 c 256
 146 25 195 84 216 174 c 258
EndSplineSet
EndChar

StartChar: V
Encoding: 86 86 33
Width: 390
VWidth: 960
Flags: HMW
AnchorPoint: "top" 405 1400 basechar 0
AnchorPoint: "bottom" 83 0 basechar 0
LayerCount: 2
Fore
SplineSet
96 55 m 257
 525 1380 l 258
 530 1394 535 1403 545 1403 c 258
 546 1403 l 258
 554 1403 557 1394 552 1380 c 258
 110 16 l 258
 106 2 97 -3 87 -3 c 258
 76 -3 l 258
 66 -3 63 6 64 17 c 258
 239 1380 l 258
 241 1396 252 1403 261 1403 c 258
 264 1403 l 258
 273 1403 276 1396 274 1379 c 258
 96 55 l 257
EndSplineSet
EndChar

StartChar: W
Encoding: 87 87 34
Width: 655
VWidth: 960
Flags: HMW
AnchorPoint: "top" 540 1400 basechar 0
AnchorPoint: "bottom" 217 0 basechar 0
LayerCount: 2
Fore
SplineSet
80 55 m 257
 508 1387 l 2
 512 1398 516 1403 530 1403 c 2
 549 1403 l 2
 563 1403 566 1397 564 1385 c 2
 371 47 l 257
 796 1385 l 2
 800 1398 806 1403 814 1403 c 2
 815 1403 l 2
 824 1403 828 1398 824 1385 c 2
 389 26 l 6
 383 8 375 -3 364 -3 c 6
 346 -3 l 6
 336 -3 332 7 334 22 c 2
 523 1345 l 257
 94 18 l 2
 90 6 82 -3 70 -3 c 2
 56 -3 l 2
 44 -3 40 5 42 17 c 2
 238 1373 l 2
 241 1393 249 1403 260 1403 c 2
 261 1403 l 2
 270 1403 275 1393 272 1373 c 2
 80 55 l 257
EndSplineSet
EndChar

StartChar: X
Encoding: 88 88 35
Width: 387
VWidth: 960
Flags: HMW
AnchorPoint: "top" 393 1400 basechar 0
AnchorPoint: "bottom" 71 0 basechar 0
LayerCount: 2
Fore
SplineSet
517 1403 m 2
 518 1403 l 2
 528 1403 534 1395 530 1385 c 2
 258 703 l 257
 230 23 l 2
 229 9 219 -3 208 -3 c 2
 206 -3 l 2
 195 -3 191 8 192 23 c 2
 228 666 l 257
 -31 21 l 2
 -37 7 -49 -3 -58 -3 c 2
 -61 -3 l 2
 -70 -3 -77 7 -71 21 c 2
 221 705 l 257
 258 1379 l 2
 259 1392 270 1403 281 1403 c 2
 282 1403 l 2
 292 1403 297 1394 296 1379 c 2
 251 741 l 257
 494 1385 l 2
 497 1394 506 1403 517 1403 c 2
EndSplineSet
EndChar

StartChar: Y
Encoding: 89 89 36
Width: 390
VWidth: 960
Flags: HMW
AnchorPoint: "top" 400 1400 basechar 0
AnchorPoint: "bottom" 77 0 basechar 0
LayerCount: 2
Fore
SplineSet
543 1403 m 2
 544 1403 l 2
 551 1403 556 1398 551 1385 c 2
 238 625 l 257
 99 20 l 2
 96 6 88 -3 77 -3 c 2
 73 -3 l 2
 62 -3 60 6 63 20 c 2
 202 625 l 257
 241 1381 l 2
 242 1395 252 1403 260 1403 c 2
 262 1403 l 2
 272 1403 275 1395 274 1381 c 2
 235 675 l 257
 524 1385 l 2
 529 1398 537 1403 543 1403 c 2
EndSplineSet
EndChar

StartChar: Z
Encoding: 90 90 37
Width: 366
VWidth: 960
Flags: HMW
AnchorPoint: "top" 407 1400 basechar 0
AnchorPoint: "bottom" 85 0 basechar 0
LayerCount: 2
Fore
SplineSet
-104 28 m 6
 501 1370 l 257
 273 1370 l 2
 260 1370 257 1375 259 1384 c 2
 259 1386 l 2
 261 1395 267 1400 280 1400 c 2
 522 1400 l 2
 537 1400 542 1389 535 1374 c 2
 -68 30 l 257
 189 30 l 2
 210 30 216 25 214 16 c 2
 213 14 l 2
 211 5 203 0 182 0 c 2
 -91 0 l 6
 -108 0 -111 12 -104 28 c 6
EndSplineSet
EndChar

StartChar: a
Encoding: 97 97 38
Width: 318
VWidth: 1104
Flags: HMW
AnchorPoint: "ogonek" 125 0 basechar 0
AnchorPoint: "top" 292 1050 basechar 0
AnchorPoint: "bottom" 24 0 basechar 0
LayerCount: 2
Fore
SplineSet
165 206 m 1
 128 47 68 -3 17 -3 c 0
 -25 -3 -54 43 -20 191 c 2
 126 825 l 2
 166 999 215 1055 275 1055 c 0
 353 1055 326 903 293 758 c 1
 278 747 l 1
 307 872 338 1027 265 1027 c 0
 231 1027 190 972 159 838 c 2
 7 179 l 2
 -14 89 -4 26 33 26 c 0
 75 26 128 98 154 209 c 1
 165 206 l 1
177 16 m 2
 177 15 l 2
 177 5 169.951843567 1.21624227974 165 0 c 0
 108 -14 112 26 140 146 c 2
 314 899 l 2
 364 1053 l 2
 366 1058 369 1061 373 1061 c 2
 374 1061 l 2
 378 1061 380 1057 379 1053 c 2
 170 146 l 2
 151 63 141 20 168 22 c 0
 174 22 177 19.1015625 177 16 c 2
EndSplineSet
EndChar

StartChar: b
Encoding: 98 98 39
Width: 344
VWidth: 1104
Flags: HMW
LayerCount: 2
Fore
SplineSet
299 1453 m 6
 301 1453 l 6
 310 1453 313 1445 310 1431 c 6
 15 151 l 5
 -33 6 l 6
 -37 -7 -40 -10 -44 -10 c 6
 -45 -10 l 6
 -49 -10 -52 -7 -49 4 c 6
 280 1431 l 6
 283 1445 290 1453 299 1453 c 6
164 846 m 5
 201 1005 261 1055 322 1055 c 4
 384 1055 403 1009 369 861 c 6
 222 227 l 6
 182 53 154 -3 84 -3 c 4
 -4 -3 3 149 36 294 c 5
 50 305 l 5
 21 180 16 25 89 25 c 4
 133 25 158 80 189 214 c 6
 342 873 l 6
 363 963 363 1026 306 1026 c 4
 254 1026 201 954 175 843 c 5
 164 846 l 5
EndSplineSet
EndChar

StartChar: c
Encoding: 99 99 40
Width: 317
VWidth: 1104
Flags: HMW
AnchorPoint: "top" 289 1050 basechar 0
AnchorPoint: "bottom" 61 0 basechar 0
LayerCount: 2
Fore
SplineSet
244 399 m 0
 227 326 208 252 192 182 c 0
 161 46 113 -5 41 -5 c 0
 -36 -5 -53 55 -8 251 c 2
 119 801 l 2
 160 980 207 1054 289 1054 c 0
 352 1054 377 1004 349 878 c 0
 334 809 295 725 228 652 c 0
 226.647636987 650.526529851 221 644 216 644 c 2
 215 644 l 2
 208 644 201.856293865 651.342211856 212 663 c 4
 269.240528301 728.784432563 308 805 323 874 c 0
 350 996 321 1027 280 1027 c 0
 218 1027 183 947 152 813 c 2
 19 238 l 2
 -21 66 -8 23 51 23 c 0
 96 23 138 44 170 184 c 0
 186 254 203 327 222 400 c 0
 222.503764388 401.935515808 224 409 233 409 c 2
 234 409 l 2
 243 409 244.453615671 400.947879058 244 399 c 0
EndSplineSet
EndChar

StartChar: d
Encoding: 100 100 41
Width: 344
VWidth: 1104
Flags: HMW
LayerCount: 2
Fore
SplineSet
187 231 m 5
 150 70 104 -10 33 -10 c 4
 -18 -10 -56 31 -14 215 c 6
 129 836 l 6
 166 998 218 1070 284 1070 c 4
 351 1070 362 979 325 818 c 5
 313 815 l 5
 341 936 332 1041 279 1041 c 4
 229 1041 190 951 166 848 c 6
 16 201 l 6
 -13 75 1 19 51 19 c 4
 102 19 151 113 179 234 c 5
 187 231 l 5
487 1434 m 6
 160 16 l 6
 157 4 151 -3 143 -3 c 6
 141 -3 l 6
 133 -3 130 4 133 16 c 6
 163 149 l 5
 164 167 l 5
 456 1434 l 6
 459 1446 466 1453 475 1453 c 6
 477 1453 l 6
 486 1453 490 1446 487 1434 c 6
EndSplineSet
EndChar

StartChar: e
Encoding: 101 101 42
Width: 336
VWidth: 1104
Flags: HMW
AnchorPoint: "ogonek" 83 15 basechar 0
AnchorPoint: "bottom" 56 0 basechar 0
AnchorPoint: "top" 296 1050 basechar 0
LayerCount: 2
Fore
SplineSet
241 383 m 4
 223 313 212 267 195 208 c 4
 146 38 105 -10 51 -10 c 4
 -22 -10 -36 80 5 258 c 6
 128 793 l 6
 168 965 223 1060 299 1060 c 4
 371 1060 371 979 342 824 c 4
 319 698 307 648 278 522 c 4
 274 503 268 497 247 497 c 6
 77 497 l 5
 83 523 l 5
 251 523 l 5
 352 970 346 1033 292 1033 c 4
 236 1033 191 935 161 805 c 6
 32 245 l 6
 1 111 2 17 58 17 c 4
 117 17 151 118 221 385 c 4
 224 397 228 406 236 406 c 6
 237 406 l 6
 245 406 245 398 241 383 c 4
EndSplineSet
EndChar

StartChar: f
Encoding: 102 102 43
Width: 217
VWidth: 1104
Flags: HMW
LayerCount: 2
Fore
SplineSet
313 1025 m 2
 170 1025 l 2
 161 1025 151 1028 151 1037 c 2
 151 1038 l 2
 151 1047 161 1050 170 1050 c 2
 313 1050 l 2
 328 1050 332 1047 332 1038 c 2
 332 1037 l 2
 332 1028 328 1025 313 1025 c 2
277 1315 m 6
 304 1434 322 1473 413 1462 c 4
 424 1461 430 1458 428 1449 c 6
 427 1448 l 6
 425 1440 416 1437 404 1438 c 4
 336 1445 327 1398 308 1315 c 6
 -75 -344 l 6
 -78 -359 -86 -363 -95 -363 c 6
 -97 -363 l 6
 -106 -363 -109 -359 -106 -344 c 6
 277 1315 l 6
EndSplineSet
EndChar

StartChar: g
Encoding: 103 103 44
Width: 286
VWidth: 1104
Flags: HMW
AnchorPoint: "top" 196 1050 basechar 0
LayerCount: 2
Fore
SplineSet
410 1246 m 0
 362 1080 337 1048 305 1031 c 1
 296 1041 l 1
 323 1050 346 1094 384 1247 c 0
 386 1256 392 1263 401 1263 c 2
 402 1263 l 2
 411 1263 413 1255 410 1246 c 0
76 153 m 2
 142 128 131 39 98 -106 c 0
 54 -297 13 -360 -53 -360 c 2
 -63 -360 l 2
 -123 -360 -141 -276 -104 -114 c 0
 -72 25 -24 118 39 156 c 1
 37 137 l 1
 -10 100 -52 -20 -74 -115 c 0
 -110 -271 -88 -339 -54 -339 c 2
 -48 -339 l 2
 6 -339 40 -238 70 -106 c 0
 93 -7 116 101 59 121 c 2
 27 132 l 2
 -12 146 -30 164 -20 209 c 0
 -12 244 26 282 91 290 c 1
 90 281 l 1
 52 272 22 256 13 219 c 0
 5 183 19 174 44 165 c 2
 76 153 l 2
196 489 m 2
 280 855 l 2
 300 943 304 1042 264 1042 c 0
 222 1042 176 939 157 855 c 2
 73 489 l 2
 55 409 54 304 93 304 c 0
 133 304 176 404 196 489 c 2
229 502 m 2
 200 378 148 274 85 274 c 0
 14 274 17 378 46 502 c 2
 124 842 l 2
 154 970 198 1070 269 1070 c 0
 339 1070 337 970 307 842 c 2
 229 502 l 2
EndSplineSet
EndChar

StartChar: h
Encoding: 104 104 45
Width: 336
VWidth: 1104
Flags: HMW
AnchorPoint: "bottom" 52 0 basechar 0
AnchorPoint: "top" 302 1450 basechar 0
LayerCount: 2
Fore
SplineSet
301 1453 m 2
 303 1453 l 2
 312 1453 316 1445 313 1434 c 2
 -14 16 l 2
 -17 4 -24 -3 -33 -3 c 2
 -35 -3 l 2
 -44 -3 -47 4 -44 16 c 2
 283 1434 l 2
 286 1445 292 1453 301 1453 c 2
168 839 m 1
 198 967 250 1060 314 1060 c 0
 373 1060 378 1001 350 881 c 2
 151 16 l 2
 148 4 141 -3 132 -3 c 2
 131 -3 l 2
 122 -3 119 4 122 16 c 2
 321 881 l 2
 340 963 349 1033 299 1033 c 0
 251 1033 196 926 168 805 c 1
 168 839 l 1
EndSplineSet
EndChar

StartChar: i
Encoding: 105 105 46
Width: 168
VWidth: 1104
Flags: HMW
AnchorPoint: "bottom" -44 0 basechar 0
AnchorPoint: "ogonek" -44 0 basechar 0
LayerCount: 2
Fore
SplineSet
307 1411 m 262
 265 1229 l 262
 262 1217 256 1210 243 1210 c 262
 242 1210 l 262
 229 1210 228 1217 231 1229 c 262
 273 1411 l 262
 276 1423 280 1431 293 1431 c 262
 295 1431 l 262
 308 1431 310 1423 307 1411 c 262
218 1034 m 258
 -17 16 l 258
 -20 3 -25 -3 -36 -3 c 258
 -38 -3 l 258
 -49 -3 -50 3 -47 16 c 258
 188 1034 l 258
 191 1047 195 1053 206 1053 c 258
 208 1053 l 258
 219 1053 221 1047 218 1034 c 258
EndSplineSet
EndChar

StartChar: j
Encoding: 106 106 47
Width: 168
VWidth: 1104
Flags: HMW
LayerCount: 2
Fore
SplineSet
-34 -59 m 6
 -83 -271 -123 -371 -172 -371 c 4
 -241 -371 -182 -199 -142 -107 c 4
 -140 -102 -137 -98 -133 -98 c 6
 -132 -98 l 6
 -127 -98 -124.254557404 -102.882545672 -126 -107 c 4
 -165 -199 -210 -345 -170 -345 c 4
 -137 -345 -109 -255 -64 -60 c 6
 190 1040 l 6
 191.585163309 1046.86488047 197 1054 206 1054 c 6
 207 1054 l 6
 216 1054 221.586505564 1046.8644473 220 1040 c 6
 -34 -59 l 6
307 1411 m 258
 265 1229 l 258
 262 1217 256 1210 243 1210 c 258
 242 1210 l 258
 229 1210 228 1217 231 1229 c 258
 273 1411 l 258
 276 1423 280 1431 293 1431 c 258
 295 1431 l 258
 308 1431 310 1423 307 1411 c 258
EndSplineSet
EndChar

StartChar: k
Encoding: 107 107 48
Width: 298
VWidth: 1104
Flags: HMW
LayerCount: 2
Fore
SplineSet
299 1453 m 6
 301 1453 l 6
 310 1453 313 1443 311 1434 c 6
 -16 16 l 6
 -19 5 -26 -3 -35 -3 c 6
 -37 -3 l 6
 -46 -3 -49 5 -46 16 c 6
 281 1434 l 6
 283 1443 291 1453 299 1453 c 6
58 412 m 5
 349 1032 l 6
 355 1045 362 1053 371 1053 c 6
 372 1053 l 6
 381 1053 383 1045 377 1032 c 6
 55 367 l 5
 58 412 l 5
178 661 m 5
 203 709 l 5
 152 18 l 6
 151 7 145 -3 134 -3 c 6
 133 -3 l 6
 123 -3 120 7 121 18 c 6
 178 661 l 5
EndSplineSet
EndChar

StartChar: l
Encoding: 108 108 49
Width: 174
VWidth: 1104
Flags: HMW
LayerCount: 2
Fore
SplineSet
302 1453 m 2
 303 1453 l 2
 311 1453 316 1446 313 1434 c 2
 -14 16 l 2
 -17 4 -24 -3 -33 -3 c 2
 -34 -3 l 2
 -43 -3 -47 4 -44 16 c 2
 283 1434 l 2
 286 1446 294 1453 302 1453 c 2
EndSplineSet
EndChar

StartChar: m
Encoding: 109 109 50
Width: 465
VWidth: 1104
Flags: HMW
LayerCount: 2
Fore
SplineSet
316 839 m 1
 349 983 389 1060 448 1060 c 0
 496 1060 506 1000 479 885 c 2
 279 16 l 2
 276 4 268 -3 259 -3 c 2
 258 -3 l 2
 249 -3 246 4 249 16 c 2
 449 885 l 2
 467 965 468 1031 431 1031 c 0
 395 1031 346 939 315 805 c 1
 316 839 l 1
207 1053 m 2
 209 1053 l 2
 218 1053 220 1046 217 1034 c 2
 190 917 l 1
 191 901 l 1
 -13 16 l 2
 -16 4 -23 -3 -32 -3 c 2
 -34 -3 l 2
 -43 -3 -47 4 -44 16 c 2
 191 1034 l 2
 194 1046 198 1053 207 1053 c 2
167 842 m 1
 199 979 246 1060 303 1060 c 0
 354 1060 360 1000 333 885 c 2
 133 16 l 2
 130 4 123 -3 114 -3 c 2
 112 -3 l 2
 103 -3 100 4 103 16 c 2
 303 885 l 2
 321 963 324 1031 287 1031 c 0
 251 1031 199 936 169 805 c 1
 167 842 l 1
EndSplineSet
EndChar

StartChar: n
Encoding: 110 110 51
Width: 336
VWidth: 1104
Flags: HMW
AnchorPoint: "bottom" 48 0 basechar 0
AnchorPoint: "top" 312 1050 basechar 0
LayerCount: 2
Fore
SplineSet
208 1053 m 6
 210 1053 l 6
 219 1053 221 1046 218 1034 c 6
 187 902 l 5
 187 886 l 5
 -14 16 l 6
 -17 4 -24 -3 -33 -3 c 6
 -35 -3 l 6
 -44 -3 -47 4 -44 16 c 6
 191 1034 l 6
 194 1046 199 1053 208 1053 c 6
168 839 m 5
 198 967 242 1060 314 1060 c 4
 373 1060 378 1001 350 881 c 6
 151 16 l 6
 148 4 142 -3 133 -3 c 6
 130 -3 l 6
 121 -3 119 4 122 16 c 6
 321 881 l 6
 340 963 349 1033 299 1033 c 4
 251 1033 196 926 168 805 c 5
 168 839 l 5
EndSplineSet
EndChar

StartChar: o
Encoding: 111 111 52
Width: 349
VWidth: 1104
Flags: HMW
AnchorPoint: "top" 296 1050 basechar 0
AnchorPoint: "bottom" 54 0 basechar 0
LayerCount: 2
Fore
SplineSet
-8 221 m 6
 133 831 l 6
 172 998 228 1060 300 1060 c 4
 372 1060 401 998 362 831 c 6
 221 221 l 6
 182 54 125 -10 53 -10 c 4
 -19 -10 -47 54 -8 221 c 6
20 208 m 6
 -8 87 5 18 59 18 c 4
 113 18 158 87 186 208 c 6
 333 843 l 6
 361 964 347 1032 293 1032 c 4
 239 1032 195 964 167 843 c 6
 20 208 l 6
EndSplineSet
EndChar

StartChar: p
Encoding: 112 112 53
Width: 344
VWidth: 1104
Flags: HMW
LayerCount: 2
Fore
SplineSet
163 829 m 1
 200 990 247 1070 318 1070 c 0
 369 1070 407 1029 365 845 c 2
 222 224 l 2
 185 62 133 -10 67 -10 c 0
 0 -10 -11 81 26 242 c 1
 38 245 l 1
 10 124 18 19 71 19 c 0
 121 19 161 109 185 212 c 2
 334 859 l 2
 363 985 349 1041 299 1041 c 0
 248 1041 200 947 172 826 c 1
 163 829 l 1
-136 -374 m 2
 189 1035 l 6
 192 1047 197 1054 205 1054 c 6
 207 1054 l 6
 215 1054 219 1047 216 1035 c 6
 187 911 l 1
 187 893 l 1
 -105 -374 l 2
 -108 -386 -116 -393 -125 -393 c 2
 -127 -393 l 2
 -136 -393 -139 -386 -136 -374 c 2
EndSplineSet
EndChar

StartChar: q
Encoding: 113 113 54
Width: 344
VWidth: 1104
Flags: HMW
LayerCount: 2
Fore
SplineSet
49 -401 m 6
 47 -401 l 6
 38 -401 36 -393 39 -379 c 6
 334 901 l 5
 381 1046 l 6
 385 1059 389 1062 393 1062 c 6
 394 1062 l 6
 398 1062 401 1059 398 1048 c 6
 69 -379 l 6
 66 -393 58 -401 49 -401 c 6
185 206 m 5
 148 47 88 -3 27 -3 c 4
 -35 -3 -54 43 -20 191 c 6
 126 825 l 6
 166 999 195 1055 265 1055 c 4
 353 1055 346 903 313 758 c 5
 298 747 l 5
 327 872 333 1027 260 1027 c 4
 216 1027 190 972 159 838 c 6
 7 179 l 6
 -14 89 -14 26 43 26 c 4
 95 26 148 98 174 209 c 5
 185 206 l 5
EndSplineSet
EndChar

StartChar: r
Encoding: 114 114 55
Width: 273
VWidth: 1104
Flags: HMW
AnchorPoint: "top" 274 1050 basechar 0
AnchorPoint: "bottom" -35 0 basechar 0
LayerCount: 2
Fore
SplineSet
145 713 m 1
 148 770 l 1
 187 940 261 1060 323 1060 c 0
 401 1060 401 933 227 670 c 0
 224 666 222 662 219 662 c 2
 218 662 l 2
 212 662 212 666 214 670 c 0
 352 904 377 1031 315 1031 c 0
 262 1031 195 928 145 713 c 1
205 1053 m 10
 206 1053 l 2
 215 1053 218 1045 215 1034 c 2
 148 746 l 1
 151 741 l 1
 -16 16 l 2
 -19 4 -25 -3 -35 -3 c 2
 -37 -3 l 2
 -47 -3 -49 4 -46 16 c 2
 189 1034 l 2
 192 1045 196 1053 205 1053 c 10
EndSplineSet
EndChar

StartChar: s
Encoding: 115 115 56
Width: 316
VWidth: 1104
Flags: HMW
AnchorPoint: "top" 281 1050 basechar 0
AnchorPoint: "bottom" 36 0 basechar 0
LayerCount: 2
Fore
SplineSet
80 393 m 2
 94 393 l 2
 98 393 100.191393825 390.492533909 98 387 c 0
 66 336 26.09765625 268.755859375 10 199 c 0
 -20 69 -7 18 38 18 c 0
 92 18 137 111 163 222 c 0
 221 475 65 525 138 843 c 0
 179 1022 232 1070 287 1070 c 0
 352 1070 365 1001 322 842 c 4
 308.379882812 791.63671875 285 735 239 677 c 0
 236.437923971 673.769556312 237 672 233 672 c 2
 219 672 l 2
 215 672 211.248864692 674.928965237 214 678 c 0
 257 726 278.552734375 792.850585938 293 844 c 4
 330 975 332 1042 281 1042 c 0
 233 1042 196 967 167 843 c 0
 97 540 254 481 194 222 c 0
 157 62 94 -10 39 -10 c 0
 -22 -10 -56 28 -21 177 c 0
 -2.2978515625 256.619140625 43 342 74 388 c 0
 76.3042118534 391.419153073 76 393 80 393 c 2
EndSplineSet
EndChar

StartChar: t
Encoding: 116 116 57
Width: 215
VWidth: 1104
Flags: HMW
AnchorPoint: "bottom" 25 0 basechar 0
LayerCount: 2
Fore
SplineSet
308 1025 m 6
 162 1025 l 6
 151 1025 143 1028 143 1037 c 6
 143 1038 l 6
 143 1047 151 1050 162 1050 c 6
 308 1050 l 6
 319 1050 327 1047 327 1038 c 6
 327 1037 l 6
 327 1028 319 1025 308 1025 c 6
90 11 m 2
 89 10 l 2
 87 3 81 0 71 -1 c 0
 -18 -11 -25 26 3 146 c 2
 291 1393 l 2
 294 1404 299 1412 308 1412 c 2
 309 1412 l 2
 318 1412 323 1404 320 1393 c 2
 32 146 l 2
 13 63 0 14 74 21 c 0
 85 22 92 19 90 11 c 2
EndSplineSet
EndChar

StartChar: u
Encoding: 117 117 58
Width: 336
VWidth: 1104
Flags: HMW
AnchorPoint: "ogonek" 115 0 basechar 0
AnchorPoint: "bottom" 42 0 basechar 0
AnchorPoint: "top" 292 1050 basechar 0
LayerCount: 2
Fore
SplineSet
132 -3 m 2
 130 -3 l 2
 121 -3 120 4 123 16 c 2
 153 148 l 1
 154 164 l 1
 355 1034 l 2
 358 1046 364 1053 373 1053 c 2
 375 1053 l 2
 384 1053 388 1046 385 1034 c 2
 150 16 l 2
 147 4 141 -3 132 -3 c 2
173 211 m 1
 143 83 99 -10 27 -10 c 0
 -32 -10 -37 49 -9 169 c 2
 191 1034 l 2
 194 1046 199 1053 208 1053 c 2
 211 1053 l 2
 220 1053 223 1046 220 1034 c 2
 20 169 l 2
 1 87 -9 17 41 17 c 0
 89 17 145 124 173 245 c 1
 173 211 l 1
EndSplineSet
EndChar

StartChar: v
Encoding: 118 118 59
Width: 272
VWidth: 1104
Flags: HMW
LayerCount: 2
Fore
SplineSet
40 73 m 1
 341 1032 l 2
 346 1047 353 1053 360 1053 c 2
 361 1053 l 2
 368 1053 372 1047 367 1032 c 2
 46 16 l 2
 41 1 31 -3 22 -3 c 6
 15 -3 l 6
 6 -3 -1 2 1 16 c 6
 143 1034 l 2
 145 1045 151 1053 159 1053 c 2
 160 1053 l 2
 168 1053 170 1045 169 1034 c 2
 40 73 l 1
EndSplineSet
EndChar

StartChar: w
Encoding: 119 119 60
Width: 440
VWidth: 1104
Flags: HMW
LayerCount: 2
Fore
SplineSet
210 56 m 1
 504 1032 l 2
 508 1045 514 1053 522 1053 c 2
 524 1053 l 2
 532 1053 534 1045 530 1032 c 2
 221 17 l 2
 217 3 209 -3 198 -3 c 6
 190 -3 l 2
 180 -3 174 1 176 16 c 2
 328 971 l 1
 43 18 l 2
 39 3 31 -3 20 -3 c 2
 10 -3 l 2
 -1 -3 -5 2 -3 17 c 2
 148 1033 l 2
 150 1047 156 1053 164 1053 c 2
 165 1053 l 2
 173 1053 175 1047 173 1033 c 2
 31 56 l 1
 323 1032 l 2
 327 1046 334 1053 345 1053 c 2
 347 1053 l 2
 357 1053 361 1044 359 1030 c 2
 210 56 l 1
EndSplineSet
EndChar

StartChar: x
Encoding: 120 120 61
Width: 286
VWidth: 1104
Flags: HMW
LayerCount: 2
Fore
SplineSet
-75 -3 m 2
 -76 -3 l 2
 -86 -3 -88 8 -82 23 c 2
 130 540 l 1
 152 1033 l 2
 153 1045 161 1053 171 1053 c 2
 172 1053 l 2
 180 1053 183 1044 182 1033 c 2
 160 589 l 1
 338 1033 l 2
 344 1048 351 1053 360 1053 c 2
 361 1053 l 2
 368 1053 375 1048 369 1033 c 2
 170 548 l 1
 131 18 l 2
 130 5 121 -3 112 -3 c 6
 111 -3 l 6
 102 -3 96 3 97 18 c 2
 141 507 l 1
 -52 23 l 2
 -58 8 -66 -3 -75 -3 c 2
EndSplineSet
EndChar

StartChar: y
Encoding: 121 121 62
Width: 300
VWidth: 1104
Flags: HMW
AnchorPoint: "top" 291 1050 basechar 0
LayerCount: 2
Fore
SplineSet
56 58 m 1
 363 1038 l 2
 365.175622411 1044.94498359 370 1050 376 1050 c 2
 377 1050 l 2
 385 1050 390.55294109 1043.18972251 387 1032 c 2
 39 -64 l 2
 -26.8431194873 -271.367985512 -79 -371 -128 -371 c 0
 -197 -371 -138 -199 -98 -107 c 0
 -96 -102 -94.400390625 -99 -90 -99 c 2
 -89 -99 l 2
 -84 -99 -80.2545574043 -102.882545672 -82 -107 c 0
 -121 -199 -166 -345 -126 -345 c 0
 -81 -345 -25 -171 25 -14 c 1
 165 1038 l 2
 166.455863673 1048.9397756 175 1053 179 1053 c 2
 180 1053 l 2
 187 1053 192.23533153 1046.96759185 191 1038 c 2
 56 58 l 1
EndSplineSet
EndChar

StartChar: z
Encoding: 122 122 63
Width: 269
VWidth: 1104
Flags: HMW
AnchorPoint: "top" 275 1050 basechar 0
LayerCount: 2
Fore
SplineSet
-75 24 m 2
 322 1022 l 1
 194 1022 l 2
 182 1022 176 1025 178 1035 c 2
 178 1036 l 2
 180 1044 188 1050 200 1050 c 2
 335 1050 l 2
 354 1050 357 1039 349 1019 c 2
 -45 28 l 1
 104 28 l 6
 116 28 123 24 121 15 c 2
 121 14 l 2
 119 5 110 0 98 0 c 6
 -60 0 l 2
 -77 0 -82 6 -75 24 c 2
EndSplineSet
EndChar

StartChar: comma
Encoding: 44 44 65
Width: 275
VWidth: 1920
Flags: HMW
LayerCount: 2
Fore
SplineSet
-61 -211 m 262
 -62 -211 l 262
 -70 -211 -70 -203 -66 -193 c 270
 15 0 l 261
 13 0 l 262
 0 0 -3 5 0 19 c 262
 41 193 l 262
 44 205 52 213 65 213 c 262
 69 213 l 262
 82 213 89 205 86 193 c 262
 50 38 l 262
 47 27 38 8 33 -3 c 262
 -42 -191 l 262
 -48 -206 -54 -211 -61 -211 c 262
EndSplineSet
EndChar

StartChar: exclam
Encoding: 33 33 67
Width: 275
VWidth: 1920
Flags: HMW
LayerCount: 2
Fore
SplineSet
19 -3 m 262
 15 -3 l 262
 2 -3 -5 6 -2 18 c 262
 38 192 l 262
 41 204 52 213 65 213 c 262
 69 213 l 262
 82 213 87 204 84 192 c 262
 44 18 l 262
 41 6 32 -3 19 -3 c 262
221 950 m 6
 333 1435 l 6
 335 1444 341 1453 351 1453 c 6
 353 1453 l 6
 363 1453 365 1444 363 1435 c 6
 251 950 l 6
 249 943 230 857 228 850 c 6
 130 440 l 6
 128 433 123 427 116 427 c 6
 115 427 l 6
 108 427 106 433 108 440 c 6
 200 850 l 6
 202 857 219 943 221 950 c 6
EndSplineSet
EndChar

StartChar: quotesingle
Encoding: 39 39 70
Width: 275
VWidth: 1920
Flags: HMW
LayerCount: 2
Fore
SplineSet
233 927 m 2
 231 927 l 2
 224 927 221 933 223 940 c 2
 269 1150 l 2
 278 1187 280 1203 286 1230 c 2
 326 1405 l 2
 328 1414 335 1423 345 1423 c 2
 347 1423 l 2
 357 1423 358 1414 356 1405 c 2
 316 1230 l 2
 310 1203 306 1187 297 1150 c 2
 247 940 l 2
 245 933 240 927 233 927 c 2
EndSplineSet
EndChar

StartChar: question
Encoding: 63 63 71
Width: 396
VWidth: 1920
Flags: HMW
LayerCount: 2
Fore
SplineSet
70 -3 m 262
 66 -3 l 262
 53 -3 46 6 49 18 c 262
 89 192 l 262
 92 204 103 213 116 213 c 262
 120 213 l 262
 133 213 138 204 135 192 c 262
 95 18 l 262
 92 6 83 -3 70 -3 c 262
162 397 m 6
 161 397 l 6
 155 397 154 401 155 404 c 4
 196 585 305 645 383 982 c 262
 441 1233 l 262
 464 1333 468 1437 410 1437 c 260
 340 1437 305 1321 283 1225 c 262
 223 967 l 6
 220 955 216 948 206 948 c 6
 204 948 l 6
 194 948 190 955 193 967 c 6
 253 1225 l 262
 279 1337 323 1467 417 1467 c 260
 505 1467 496 1345 471 1235 c 262
 415 994 l 262
 344 687 203 557 169 404 c 4
 168 401 167 397 162 397 c 6
EndSplineSet
EndChar

StartChar: parenleft
Encoding: 40 40 72
Width: 295
VWidth: 2048
Flags: HMW
LayerCount: 2
Fore
SplineSet
236 1219 m 262
 283 1421 350 1581 496 1609 c 4
 500 1610 504 1607 503 1603 c 6
 503 1602 l 6
 502 1596 496 1594 493 1593 c 4
 377 1562 315 1429 269 1229 c 262
 -11 16 l 262
 -57 -184 -57 -317 45 -348 c 4
 48 -349 52 -351 51 -357 c 6
 50 -358 l 6
 49 -364 45 -365 41 -364 c 4
 -93 -336 -86 -176 -39 26 c 262
 236 1219 l 262
EndSplineSet
EndChar

StartChar: parenright
Encoding: 41 41 73
Width: 294
VWidth: 2048
Flags: HMW
LayerCount: 2
Fore
SplineSet
145 26 m 262
 98 -176 31 -336 -115 -364 c 4
 -119 -365 -123 -362 -122 -358 c 6
 -121 -357 l 6
 -120 -351 -114 -349 -111 -348 c 4
 5 -317 67 -184 113 16 c 262
 393 1229 l 262
 439 1429 439 1562 337 1593 c 4
 334 1594 330 1596 331 1602 c 6
 331 1603 l 6
 332 1609 336 1610 340 1609 c 4
 474 1581 467 1421 420 1219 c 262
 145 26 l 262
EndSplineSet
EndChar

StartChar: asterisk
Encoding: 42 42 74
Width: 500
VWidth: 2048
Flags: HMW
LayerCount: 2
Fore
SplineSet
409 1205 m 261
 409 1215 l 261
 576 1279 l 6
 585 1282 596 1285 601 1286 c 6
 614 1288 l 6
 623 1289 632 1285 632 1278 c 6
 632 1277 l 6
 632 1270 626 1262 617 1258 c 6
 605 1252 l 6
 601 1250 588 1246 579 1244 c 6
 409 1205 l 261
404 1207 m 261
 414 1213 l 261
 492 1087 l 6
 496 1080 501 1071 502 1067 c 6
 506 1055 l 6
 508 1047 504 1038 497 1034 c 6
 495 1033 l 6
 488 1029 480 1031 475 1037 c 6
 468 1046 l 6
 466 1050 461 1058 458 1066 c 6
 404 1207 l 261
405 1213 m 261
 413 1207 l 261
 293 1066 l 6
 286 1058 278 1049 274 1045 c 6
 263 1036 l 6
 256 1030 245 1029 240 1033 c 6
 240 1034 l 6
 235 1038 236 1047 242 1055 c 6
 250 1067 l 6
 253 1071 261 1080 269 1087 c 6
 405 1213 l 261
412 1215 m 261
 406 1205 l 261
 254 1243 l 6
 245 1245 236 1249 232 1251 c 6
 221 1257 l 6
 214 1261 213 1270 217 1277 c 6
 217 1278 l 6
 221 1285 229 1288 238 1287 c 6
 251 1285 l 6
 256 1284 266 1281 273 1278 c 6
 412 1215 l 261
414 1210 m 261
 403 1210 l 261
 428 1375 l 6
 429 1384 432 1395 434 1400 c 6
 439 1413 l 6
 442 1422 452 1428 459 1428 c 6
 460 1428 l 6
 467 1428 472 1422 471 1413 c 6
 470 1400 l 6
 470 1395 467 1384 464 1375 c 6
 414 1210 l 261
EndSplineSet
EndChar

StartChar: at
Encoding: 64 64 75
Width: 770
VWidth: 1920
Flags: HMW
LayerCount: 2
Fore
SplineSet
399 199 m 257
 372 84 327 -5 249 -5 c 256
 185 -5 172 61 207 211 c 258
 351 838 l 258
 388 998 425 1055 489 1055 c 256
 558 1055 582 966 555 851 c 257
 536 841 l 257
 560 946 535 1025 487 1025 c 256
 433 1025 408 956 384 851 c 258
 234 199 l 258
 210 94 217 25 261 25 c 256
 319 25 366 104 390 209 c 257
 399 199 l 257
374 -312 m 0
 333 -342 268 -365 188 -365 c 256
 -56 -365 -74 -191 -19 49 c 258
 199 990 l 258
 258 1245 372 1405 596 1405 c 256
 844 1405 845 1232 795 1016 c 258
 614 235 l 258
 572 55 531 -5 453 -5 c 256
 375 -5 355 55 380 165 c 258
 559 941 l 257
 596 1054 l 2
 600 1066 605 1070 610 1070 c 6
 611 1070 l 2
 616 1070 618 1066 616 1056 c 2
 415 185 l 258
 393 88 396 25 460 25 c 256
 514 25 552 95 584 235 c 258
 765 1016 l 258
 813 1226 797 1375 589 1375 c 256
 391 1375 283 1226 230 996 c 258
 10 45 l 258
 -38 -165 -29 -335 195 -335 c 256
 271 -335 322 -311 365 -284 c 0
 370 -281 379 -280 382 -287 c 2
 383 -290 l 2
 387 -299 378 -309 374 -312 c 0
EndSplineSet
EndChar

StartChar: dollar
Encoding: 36 36 76
Width: 374
VWidth: 960
Flags: HMW
LayerCount: 2
Fore
SplineSet
71 527 m 2
 73 527 l 2
 82 527 85 519 83 510 c 2
 26 258 l 2
 -13 87 10 25 66 25 c 256
 119 25 197 88 245 294 c 256
 278 439 241 595 215 712 c 0
 183 855 179 971 224 1166 c 256
 263 1336 307 1405 396 1405 c 256
 489 1405 487 1328 446 1150 c 2
 393 917 l 2
 391 910 386 902 375 902 c 2
 373 902 l 2
 362 902 362 911 363 917 c 2
 416 1146 l 2
 457 1324 448 1375 389 1375 c 256
 318 1375 287 1311 254 1166 c 256
 210 976 214 869 247 732 c 0
 276 611 316 472 275 294 c 256
 224 71 134 -5 59 -5 c 256
 -12 -5 -52 55 -11 234 c 2
 53 510 l 2
 55 519 62 527 71 527 c 2
430 1590 m 2
 432 1590 l 2
 438 1590 440 1585 437 1574 c 2
 33 -176 l 2
 31 -184 27 -190 21 -190 c 2
 19 -190 l 2
 13 -190 11 -184 13 -176 c 2
 417 1574 l 2
 420 1585 424 1590 430 1590 c 2
EndSplineSet
EndChar

StartChar: numbersign
Encoding: 35 35 77
Width: 502
VWidth: 1920
Flags: HMW
LayerCount: 2
Fore
SplineSet
68 485 m 2
 383 485 l 2
 392 485 397 479 395 471 c 2
 394 469 l 2
 392 461 385 455 376 455 c 2
 61 455 l 2
 47 455 42 460 44 469 c 2
 45 471 l 2
 47 480 54 485 68 485 c 2
228 1025 m 2
 548 1025 l 2
 557 1025 561 1019 559 1011 c 2
 559 1009 l 2
 557 1001 550 995 541 995 c 2
 221 995 l 2
 207 995 204 1002 206 1009 c 2
 206 1011 l 2
 208 1018 214 1025 228 1025 c 2
594 1403 m 2
 596 1403 l 2
 607 1403 607 1393 604 1385 c 2
 129 22 l 2
 124 8 116 -3 106 -3 c 2
 104 -3 l 2
 94 -3 94 8 99 22 c 2
 574 1385 l 2
 577 1393 583 1403 594 1403 c 2
469 1403 m 2
 471 1403 l 2
 480 1403 483 1397 479 1384 c 2
 4 22 l 2
 -1 8 -10 -3 -19 -3 c 2
 -21 -3 l 2
 -30 -3 -31 8 -26 22 c 2
 449 1384 l 2
 453 1397 460 1403 469 1403 c 2
EndSplineSet
EndChar

StartChar: slash
Encoding: 47 47 78
Width: 380
VWidth: 2048
Flags: HMW
LayerCount: 2
Fore
SplineSet
560 1386 m 6
 -83 -82 l 6
 -89 -96 -97 -103 -106 -103 c 6
 -108 -103 l 6
 -115 -103 -119 -96 -113 -82 c 6
 530 1386 l 6
 535 1398 544 1403 551 1403 c 6
 553 1403 l 6
 560 1403 565 1398 560 1386 c 6
EndSplineSet
EndChar

StartChar: percent
Encoding: 37 37 79
Width: 677
VWidth: 2048
Flags: HMW
LayerCount: 2
Fore
SplineSet
197 985 m 262
 251 1216 l 262
 280 1341 308 1405 396 1405 c 260
 484 1405 490 1341 461 1216 c 262
 407 985 l 262
 378 860 344 795 256 795 c 260
 168 795 168 860 197 985 c 262
225 975 m 262
 205 890 198 825 262 825 c 260
 326 825 355 890 375 975 c 262
 433 1226 l 262
 453 1311 453 1375 389 1375 c 260
 325 1375 303 1311 283 1226 c 262
 225 975 l 262
300 185 m 262
 359 442 l 262
 388 567 418 631 506 631 c 260
 594 631 598 567 569 442 c 262
 510 185 l 262
 481 60 447 -5 359 -5 c 260
 271 -5 271 60 300 185 c 262
327 175 m 262
 307 90 302 25 366 25 c 260
 430 25 457 90 477 175 c 262
 541 452 l 262
 561 537 563 601 499 601 c 260
 435 601 411 537 391 452 c 262
 327 175 l 262
811 1388 m 6
 -19 18 l 6
 -28 3 -36 -3 -44 -3 c 6
 -46 -3 l 6
 -54 -3 -58 3 -49 18 c 6
 781 1388 l 6
 787 1397 791 1404 801 1404 c 6
 802 1404 l 6
 811 1404 817 1397 811 1388 c 6
EndSplineSet
EndChar

StartChar: hyphen
Encoding: 45 45 80
Width: 329
VWidth: 1920
Flags: HMW
LayerCount: 2
Fore
SplineSet
60 612 m 14
 61 613 l 22
 63 622 69 627 83 627 c 14
 297 627 l 22
 311 627 315 622 313 613 c 14
 312 612 l 22
 310 603 304 598 290 598 c 14
 76 598 l 22
 62 598 58 603 60 612 c 14
EndSplineSet
EndChar

StartChar: underscore
Encoding: 95 95 81
Width: 450
VWidth: 1920
Flags: HMW
LayerCount: 2
Fore
SplineSet
-127 -16 m 10
 -126 -14 l 18
 -124 -5 -116 0 -105 0 c 10
 308 0 l 18
 327 0 332 -5 330 -14 c 10
 330 -15 l 18
 328 -24 320 -30 301 -30 c 10
 -112 -30 l 18
 -123 -30 -129 -25 -127 -16 c 10
EndSplineSet
EndChar

StartChar: plus
Encoding: 43 43 82
Width: 540
VWidth: 1920
Flags: HMW
LayerCount: 2
Fore
SplineSet
80 685 m 10
 81 687 l 18
 83 696 89 702 98 702 c 10
 521 702 l 18
 535 702 539 696 537 687 c 10
 536 685 l 18
 534 676 528 671 514 671 c 10
 91 671 l 18
 82 671 78 676 80 685 c 10
366 938 m 10
 368 938 l 18
 377 938 379 929 377 920 c 10
 267 440 l 18
 265 431 257 422 248 422 c 10
 246 422 l 18
 237 422 235 431 237 440 c 10
 347 920 l 18
 349 929 357 938 366 938 c 10
EndSplineSet
EndChar

StartChar: equal
Encoding: 61 61 83
Width: 530
VWidth: 1920
Flags: HMW
LayerCount: 2
Fore
SplineSet
21 428 m 14
 21 430 l 22
 23 439 30 444 41 444 c 14
 455 444 l 22
 466 444 469 437 467 430 c 14
 467 428 l 22
 465 421 459 414 448 414 c 14
 34 414 l 22
 23 414 19 419 21 428 c 14
52 565 m 14
 53 567 l 22
 55 576 61 581 72 581 c 14
 486 581 l 22
 497 581 501 574 499 567 c 14
 498 565 l 22
 496 558 490 551 479 551 c 14
 65 551 l 22
 54 551 50 556 52 565 c 14
EndSplineSet
EndChar

StartChar: less
Encoding: 60 60 84
Width: 489
VWidth: 1920
Flags: HMW
LayerCount: 2
Fore
SplineSet
382 373 m 6
 65 591 l 6
 62 593 60 595 61 599 c 6
 62 601 l 6
 63 605 66 607 70 609 c 6
 497 832 l 6
 507 837 514 832 512 823 c 6
 512 822 l 6
 510 815 504 811 496 807 c 6
 98 600 l 261
 396 396 l 6
 405 390 410 385 409 379 c 6
 409 378 l 6
 406 367 393 366 382 373 c 6
EndSplineSet
EndChar

StartChar: greater
Encoding: 62 62 85
Width: 489
VWidth: 1920
Flags: HMW
LayerCount: 2
Fore
SplineSet
144 827 m 6
 461 609 l 6
 464 607 466 605 465 601 c 6
 464 599 l 6
 463 595 460 593 456 591 c 6
 29 368 l 6
 19 363 12 368 14 377 c 6
 14 378 l 6
 16 385 22 389 30 393 c 6
 429 600 l 261
 130 804 l 6
 121 810 116 815 117 821 c 6
 117 822 l 6
 120 833 133 834 144 827 c 6
EndSplineSet
EndChar

StartChar: backslash
Encoding: 92 92 86
Width: 379
VWidth: 2048
Flags: HMW
LayerCount: 2
Fore
SplineSet
215 -82 m 6
 215 -96 207 -103 200 -103 c 2
 198 -103 l 2
 189 -103 185 -96 185 -82 c 2
 220 1386 l 2
 220 1398 228 1403 235 1403 c 2
 237 1403 l 2
 244 1403 250 1398 250 1386 c 2
 215 -82 l 6
EndSplineSet
EndChar

StartChar: bracketleft
Encoding: 91 91 87
Width: 275
VWidth: 1920
Flags: HMW
LayerCount: 2
Fore
SplineSet
349 1575 m 257
 -92 -335 l 257
 38 -335 l 2
 48 -335 54 -338 52 -347 c 2
 52 -348 l 2
 50 -357 42 -360 32 -360 c 2
 -103 -360 l 2
 -117 -360 -125 -349 -122 -335 c 2
 319 1575 l 2
 322 1589 335 1600 349 1600 c 2
 484 1600 l 2
 496 1600 502 1596 500 1588 c 2
 499 1587 l 2
 497 1579 491 1575 479 1575 c 2
 349 1575 l 257
EndSplineSet
EndChar

StartChar: braceleft
Encoding: 123 123 88
Width: 288
VWidth: 2048
Flags: HMW
LayerCount: 2
Fore
SplineSet
330 1439 m 262
 356 1553 376 1594 471 1600 c 4
 482 1601 490 1598 488 1589 c 6
 488 1588 l 6
 486 1579 477 1576 466 1575 c 4
 415 1569 387 1556 360 1439 c 262
 210 788 l 262
 189 696 160 644 96 620 c 261
 148 596 153 544 132 452 c 262
 -18 -199 l 262
 -42 -305 -22 -327 24 -335 c 4
 35 -337 42 -340 40 -349 c 6
 40 -350 l 6
 38 -359 30 -361 19 -360 c 4
 -72 -354 -74 -313 -48 -199 c 262
 102 452 l 262
 122 538 114 587 75 604 c 4
 66 608 63 613 65 620 c 6
 65 621 l 6
 67 628 72 632 82 636 c 4
 131 653 160 701 180 788 c 262
 330 1439 l 262
EndSplineSet
EndChar

StartChar: bracketright
Encoding: 93 93 89
Width: 275
VWidth: 1920
Flags: HMW
LayerCount: 2
Fore
SplineSet
-27 -335 m 261
 414 1575 l 261
 284 1575 l 6
 274 1575 267 1578 269 1587 c 6
 270 1588 l 6
 272 1597 279 1600 289 1600 c 6
 424 1600 l 6
 438 1600 447 1589 444 1575 c 6
 3 -335 l 6
 0 -349 -14 -360 -28 -360 c 6
 -163 -360 l 6
 -175 -360 -180 -356 -178 -348 c 6
 -178 -347 l 6
 -176 -339 -169 -335 -157 -335 c 6
 -27 -335 l 261
EndSplineSet
EndChar

StartChar: braceright
Encoding: 125 125 90
Width: 288
VWidth: 2048
Flags: HMW
LayerCount: 2
Fore
SplineSet
4 -199 m 262
 -22 -313 -42 -354 -137 -360 c 4
 -148 -361 -156 -358 -154 -349 c 6
 -153 -348 l 6
 -151 -339 -142 -336 -131 -335 c 4
 -80 -329 -53 -316 -26 -199 c 262
 124 452 l 262
 145 544 174 596 238 620 c 261
 186 644 181 696 202 788 c 262
 352 1439 l 262
 376 1545 357 1567 311 1575 c 4
 300 1577 292 1580 294 1589 c 6
 294 1590 l 6
 296 1599 304 1601 315 1600 c 4
 406 1594 408 1553 382 1439 c 262
 232 788 l 262
 212 702 220 653 259 636 c 4
 268 632 271 627 269 620 c 6
 269 619 l 6
 267 612 262 608 252 604 c 4
 203 587 174 539 154 452 c 262
 4 -199 l 262
EndSplineSet
EndChar

StartChar: bar
Encoding: 124 124 91
Width: 285
VWidth: 1920
Flags: HMW
LayerCount: 2
Fore
SplineSet
392 1603 m 10
 394 1603 l 18
 405 1603 406 1593 403 1580 c 10
 -40 -340 l 18
 -43 -353 -49 -363 -60 -363 c 14
 -62 -363 l 22
 -73 -363 -73 -353 -70 -340 c 10
 373 1580 l 18
 376 1593 381 1603 392 1603 c 10
EndSplineSet
EndChar

StartChar: asciitilde
Encoding: 126 126 92
Width: 664
VWidth: 2048
Flags: HMW
LayerCount: 2
Fore
SplineSet
243 677 m 256
 187 677 145 617 124 536 c 0
 121 526 112 518 105 518 c 2
 103 518 l 2
 95 518 91 526 94 536 c 0
 120 630 168 707 253 707 c 256
 368 707 364 534 460 534 c 256
 516 534 560 593 581 674 c 0
 584 685 590 692 598 692 c 2
 600 692 l 2
 609 692 613 685 610 674 c 0
 584 580 535 504 450 504 c 256
 335 504 339 677 243 677 c 256
EndSplineSet
EndChar

StartChar: asciicircum
Encoding: 94 94 93
Width: 386
VWidth: 1920
Flags: HMW
LayerCount: 2
Fore
SplineSet
377 1321 m 257
 125 757 l 2
 115 734 107 727 100 727 c 2
 99 727 l 2
 93 727 84 733 95 757 c 2
 375 1382 l 6
 382 1398 388 1403 395 1403 c 2
 397 1403 l 2
 404 1403 407 1397 407 1381 c 6
 399 756 l 2
 399 739 394 727 382 727 c 2
 380 727 l 2
 370 727 369 739 369 756 c 2
 377 1321 l 257
EndSplineSet
EndChar

StartChar: figuredash
Encoding: 8210 8210 108
Width: 575
VWidth: 2048
Flags: HMW
LayerCount: 2
Fore
SplineSet
57 612 m 14
 57 613 l 22
 57 622 62 627 76 627 c 14
 539 627 l 22
 553 627 558 622 558 613 c 14
 558 612 l 22
 558 603 553 598 539 598 c 14
 76 598 l 22
 62 598 57 603 57 612 c 14
EndSplineSet
EndChar

StartChar: endash
Encoding: 8211 8211 109
Width: 550
VWidth: 2048
Flags: HMW
LayerCount: 2
Fore
SplineSet
57 612 m 14
 57 613 l 22
 57 622 62 627 76 627 c 14
 514 627 l 22
 528 627 533 622 533 613 c 14
 533 612 l 22
 533 603 528 598 514 598 c 14
 76 598 l 22
 62 598 57 603 57 612 c 14
EndSplineSet
EndChar

StartChar: emdash
Encoding: 8212 8212 110
Width: 1100
VWidth: 2048
Flags: HMW
LayerCount: 2
Fore
SplineSet
57 612 m 14
 57 613 l 22
 57 622 62 627 76 627 c 14
 1064 627 l 22
 1078 627 1083 622 1083 613 c 14
 1083 612 l 22
 1083 603 1078 598 1064 598 c 14
 76 598 l 22
 62 598 57 603 57 612 c 14
EndSplineSet
EndChar

StartChar: uni2015
Encoding: 8213 8213 111
Width: 1180
VWidth: 2048
Flags: HMW
LayerCount: 2
Fore
SplineSet
57 612 m 14
 57 613 l 22
 57 622 62 627 76 627 c 14
 1144 627 l 22
 1158 627 1163 622 1163 613 c 14
 1163 612 l 22
 1163 603 1158 598 1144 598 c 14
 76 598 l 22
 62 598 57 603 57 612 c 14
EndSplineSet
EndChar

StartChar: quoteleft
Encoding: 8216 8216 114
Width: 286
VWidth: 1920
Flags: HMW
LayerCount: 2
Fore
SplineSet
394 1471 m 258
 395 1471 l 258
 403 1471 402 1463 398 1453 c 266
 318 1260 l 257
 320 1260 l 258
 333 1260 336 1255 333 1241 c 258
 292 1067 l 258
 289 1055 281 1047 268 1047 c 258
 264 1047 l 258
 251 1047 244 1055 247 1067 c 258
 283 1222 l 258
 286 1233 295 1252 300 1263 c 258
 375 1451 l 258
 381 1466 387 1471 394 1471 c 258
EndSplineSet
EndChar

StartChar: quotereversed
Encoding: 8219 8219 117
Width: 286
VWidth: 1920
Flags: HMW
LayerCount: 2
Fore
SplineSet
285 999 m 258
 278 999 275 1004 275 1019 c 258
 287 1207 l 258
 288 1218 286 1237 289 1248 c 258
 325 1403 l 258
 328 1415 338 1423 351 1423 c 258
 355 1423 l 258
 368 1423 373 1415 370 1403 c 258
 330 1229 l 258
 327 1215 321 1210 308 1210 c 258
 306 1210 l 257
 298 1017 l 274
 298 1007 294 999 286 999 c 258
 285 999 l 258
EndSplineSet
EndChar

StartChar: bullet
Encoding: 8226 8226 120
Width: 345
VWidth: 2048
Flags: HMW
LayerCount: 2
Fore
SplineSet
129 732 m 262
 129 759 l 262
 129 819 175 848 223 848 c 260
 271 848 323 819 323 759 c 262
 323 732 l 262
 323 672 271 642 223 642 c 260
 175 642 129 672 129 732 c 262
EndSplineSet
EndChar

StartChar: dagger
Encoding: 8224 8224 124
Width: 380
VWidth: 1920
Flags: HMW
LayerCount: 2
Fore
SplineSet
151 1034 m 10
 151 1035 l 18
 153 1044 161 1050 172 1050 c 10
 452 1050 l 18
 463 1050 469 1044 467 1035 c 10
 467 1034 l 18
 465 1025 456 1020 445 1020 c 10
 165 1020 l 18
 154 1020 149 1025 151 1034 c 10
393 1403 m 10
 395 1403 l 18
 404 1403 407 1394 405 1385 c 10
 88 15 l 22
 85 4 79 -3 70 -3 c 14
 68 -3 l 22
 59 -3 55 4 58 15 c 14
 375 1385 l 18
 377 1394 384 1403 393 1403 c 10
EndSplineSet
EndChar

StartChar: daggerdbl
Encoding: 8225 8225 125
Width: 380
VWidth: 1920
Flags: HMW
LayerCount: 2
Fore
SplineSet
-85 14 m 10
 -85 15 l 18
 -83 23 -74 30 -63 30 c 10
 217 30 l 18
 228 30 233 24 231 15 c 10
 231 14 l 18
 229 5 221 0 210 0 c 10
 -70 0 l 18
 -81 0 -87 6 -85 14 c 10
151 1034 m 10
 151 1035 l 18
 153 1044 161 1050 172 1050 c 10
 452 1050 l 18
 463 1050 469 1044 467 1035 c 10
 467 1034 l 18
 465 1025 456 1020 445 1020 c 10
 165 1020 l 18
 154 1020 149 1025 151 1034 c 10
393 1403 m 10
 395 1403 l 18
 405 1403 408 1396 405 1385 c 10
 5 -345 l 22
 2 -356 -4 -363 -13 -363 c 14
 -15 -363 l 22
 -24 -363 -28 -356 -25 -345 c 14
 375 1385 l 18
 378 1396 383 1403 393 1403 c 10
EndSplineSet
EndChar

StartChar: perthousand
Encoding: 8240 8240 126
Width: 947
VWidth: 2048
Flags: HMW
LayerCount: 2
Fore
SplineSet
570 185 m 262
 629 442 l 262
 658 567 688 631 776 631 c 260
 864 631 868 567 839 442 c 262
 780 185 l 262
 751 60 717 -5 629 -5 c 260
 541 -5 541 60 570 185 c 262
597 175 m 262
 577 90 572 25 636 25 c 260
 700 25 727 90 747 175 c 262
 811 452 l 262
 831 537 833 601 769 601 c 260
 705 601 681 537 661 452 c 262
 597 175 l 262
197 985 m 262
 251 1216 l 262
 280 1341 308 1405 396 1405 c 260
 484 1405 490 1341 461 1216 c 262
 407 985 l 262
 378 860 344 795 256 795 c 260
 168 795 168 860 197 985 c 262
225 975 m 262
 205 890 198 825 262 825 c 260
 326 825 355 890 375 975 c 262
 433 1226 l 262
 453 1311 453 1375 389 1375 c 260
 325 1375 303 1311 283 1226 c 262
 225 975 l 262
300 185 m 262
 359 442 l 262
 388 567 418 631 506 631 c 260
 594 631 598 567 569 442 c 262
 510 185 l 262
 481 60 447 -5 359 -5 c 260
 271 -5 271 60 300 185 c 262
327 175 m 262
 307 90 302 25 366 25 c 260
 430 25 457 90 477 175 c 262
 541 452 l 262
 561 537 563 601 499 601 c 260
 435 601 411 537 391 452 c 262
 327 175 l 262
811 1388 m 6
 -19 18 l 6
 -28 3 -36 -3 -44 -3 c 6
 -46 -3 l 6
 -54 -3 -58 3 -49 18 c 6
 781 1388 l 6
 787 1397 791 1404 801 1404 c 6
 802 1404 l 6
 811 1404 817 1397 811 1388 c 6
EndSplineSet
EndChar

StartChar: uni2031
Encoding: 8241 8241 127
Width: 1217
VWidth: 2048
Flags: HMW
LayerCount: 2
Fore
SplineSet
840 185 m 262
 899 442 l 262
 928 567 958 631 1046 631 c 260
 1134 631 1138 567 1109 442 c 262
 1050 185 l 262
 1021 60 987 -5 899 -5 c 260
 811 -5 811 60 840 185 c 262
867 175 m 262
 847 90 842 25 906 25 c 260
 970 25 997 90 1017 175 c 262
 1081 452 l 262
 1101 537 1103 601 1039 601 c 260
 975 601 951 537 931 452 c 262
 867 175 l 262
570 185 m 258
 629 442 l 258
 658 567 688 631 776 631 c 256
 864 631 868 567 839 442 c 258
 780 185 l 258
 751 60 717 -5 629 -5 c 256
 541 -5 541 60 570 185 c 258
597 175 m 258
 577 90 572 25 636 25 c 256
 700 25 727 90 747 175 c 258
 811 452 l 258
 831 537 833 601 769 601 c 256
 705 601 681 537 661 452 c 258
 597 175 l 258
197 985 m 258
 251 1216 l 258
 280 1341 308 1405 396 1405 c 256
 484 1405 490 1341 461 1216 c 258
 407 985 l 258
 378 860 344 795 256 795 c 256
 168 795 168 860 197 985 c 258
225 975 m 258
 205 890 198 825 262 825 c 256
 326 825 355 890 375 975 c 258
 433 1226 l 258
 453 1311 453 1375 389 1375 c 256
 325 1375 303 1311 283 1226 c 258
 225 975 l 258
300 185 m 258
 359 442 l 258
 388 567 418 631 506 631 c 256
 594 631 598 567 569 442 c 258
 510 185 l 258
 481 60 447 -5 359 -5 c 256
 271 -5 271 60 300 185 c 258
327 175 m 258
 307 90 302 25 366 25 c 256
 430 25 457 90 477 175 c 258
 541 452 l 258
 561 537 563 601 499 601 c 256
 435 601 411 537 391 452 c 258
 327 175 l 258
811 1388 m 2
 -19 18 l 2
 -28 3 -36 -3 -44 -3 c 2
 -46 -3 l 2
 -54 -3 -58 3 -49 18 c 2
 781 1388 l 2
 787 1397 791 1404 801 1404 c 2
 802 1404 l 2
 811 1404 817 1397 811 1388 c 2
EndSplineSet
EndChar

StartChar: fraction
Encoding: 8260 8260 128
Width: 500
VWidth: 1920
Flags: HMW
LayerCount: 2
Fore
SplineSet
584 1291 m 2
 588 1290 l 2
 597 1288 596 1277 590 1266 c 2
 39 180 l 2
 31 164 21 155 11 159 c 2
 8 160 l 2
 -4 164 3 181 12 198 c 2
 557 1272 l 6
 565 1287 574 1294 584 1291 c 2
EndSplineSet
EndChar

StartChar: uni2074
Encoding: 8308 8308 129
Width: 269
VWidth: 1920
Flags: HMW
LayerCount: 2
Fore
SplineSet
331 882 m 2
 330 880 l 2
 328 873 320 868 311 868 c 2
 267 868 l 1
 215 643 l 6
 213 634 206 627 199 627 c 2
 195 627 l 6
 188 627 183 634 185 643 c 6
 237 868 l 1
 120 868 l 2
 108 868 99 874 102 886 c 2
 102 888 l 2
 102 890 106 898 109 905 c 2
 380 1456 l 2
 385 1465 389 1473 396 1473 c 2
 397 1473 l 2
 404 1473 405 1467 403 1457 c 2
 273 894 l 1
 317 894 l 2
 326 894 333 889 331 882 c 2
244 894 m 1
 351 1357 l 1
 125 894 l 1
 244 894 l 1
EndSplineSet
EndChar

StartChar: uni2073
Encoding: 8307 8307 130
Width: 305
VWidth: 1920
Flags: HMW
LayerCount: 2
Fore
SplineSet
150 878 m 6
 151 878 l 6
 158 878 163 871 161 861 c 6
 131 730 l 2
 119 680 130 651 176 651 c 0
 220 651 247 679 260 737 c 2
 313 968 l 2
 324 1016 318 1045 261 1045 c 2
 247 1045 l 2
 238 1045 232 1051 234 1058 c 2
 234 1059 l 2
 236 1066 244 1071 253 1071 c 2
 261 1071 l 2
 311 1071 327 1096 337 1141 c 2
 391 1374 l 2
 402 1421 398 1448 357 1448 c 0
 316 1448 299 1417 287 1364 c 2
 252 1214 l 2
 250 1205 242 1198 235 1198 c 2
 234 1198 l 2
 227 1198 221 1205 223 1214 c 2
 258 1364 l 2
 274 1434 302 1475 364 1475 c 0
 426 1475 437 1442 421 1373 c 2
 370 1152 l 2
 352 1076 323 1055 259 1055 c 1
 267 1064 l 1
 343 1064 359 1036 341 960 c 2
 289 736 l 2
 272 663 239 625 169 625 c 0
 104 625 85 660 101 729 c 2
 132 861 l 6
 134 871 143 878 150 878 c 6
EndSplineSet
EndChar

StartChar: uni2072
Encoding: 8306 8306 131
Width: 251
VWidth: 1920
Flags: HMW
LayerCount: 2
Fore
SplineSet
97 714 m 2
 146 927 293 1037 335 1217 c 2
 359 1321 l 2
 383 1424 384 1456 349 1456 c 0
 311 1456 291 1399 273 1322 c 2
 231 1138 l 2
 229 1128 220 1120 213 1120 c 2
 212 1120 l 2
 205 1120 200 1128 202 1138 c 2
 244 1321 l 2
 269 1430 298 1482 355 1482 c 0
 414 1482 415 1440 387 1318 c 2
 369 1240 l 2
 319 1025 172 914 129 729 c 2
 115 665 l 1
 235 665 l 2
 242 665 249 660 247 651 c 2
 247 650 l 2
 245 641 235 637 228 637 c 2
 102 637 l 2
 89 637 81 647 84 660 c 2
 97 714 l 2
EndSplineSet
EndChar

StartChar: uni2070
Encoding: 8304 8304 132
Width: 335
VWidth: 1920
Flags: HMW
LayerCount: 2
Fore
SplineSet
145 777 m 2
 271 1323 l 2
 294 1421 317 1475 389 1475 c 0
 461 1475 456 1421 433 1323 c 2
 307 777 l 2
 284 679 264 625 192 625 c 0
 120 625 122 679 145 777 c 2
177 783 m 2
 160 709 149 651 198 651 c 0
 247 651 262 709 279 783 c 2
 402 1317 l 2
 419 1391 432 1450 383 1450 c 0
 334 1450 317 1391 300 1317 c 2
 177 783 l 2
EndSplineSet
EndChar

StartChar: uni2075
Encoding: 8309 8309 133
Width: 327
VWidth: 1920
Flags: HMW
LayerCount: 2
Fore
SplineSet
179 844 m 2
 181 844 l 2
 188 844 193 841 190 829 c 4
 156 683 159 643 189 643 c 0
 224 643 249 707 274 815 c 2
 315 990 l 2
 345 1120 344 1159 321 1159 c 0
 297 1159 280 1128 248 1028 c 0
 245 1019 240 1010 228 1010 c 2
 226 1010 l 2
 219 1010 214 1019 217 1031 c 2
 331 1445 l 2
 334 1455 342 1463 360 1463 c 2
 465 1463 l 2
 473 1463 476 1459 475 1454 c 2
 474 1453 l 2
 471 1440 462 1437 410 1437 c 2
 356 1437 l 1
 243 1037 l 1
 238 1037 l 1
 258 1105 289 1186 333 1186 c 0
 378 1186 378 1136 342 982 c 2
 300 801 l 2
 270 669 239 618 185 618 c 0
 133 618 122 653 162 828 c 4
 165 840 172 844 179 844 c 2
EndSplineSet
EndChar

StartChar: uni2076
Encoding: 8310 8310 134
Width: 318
VWidth: 1920
Flags: HMW
LayerCount: 2
Fore
SplineSet
300 1081 m 0
 257 1081 227 1041 214 986 c 2
 209 966 l 1
 208 995 l 1
 224 1065 256 1107 311 1107 c 0
 369 1107 378 1067 357 975 c 2
 306 754 l 2
 286 669 260 625 191 625 c 0
 103 625 114 681 139 790 c 2
 258 1303 l 2
 286 1423 309 1475 379 1475 c 0
 449 1475 443 1424 425 1344 c 2
 395 1213 l 6
 393 1204 387 1197 379 1197 c 6
 377 1197 l 6
 369 1197 365 1204 367 1213 c 6
 397 1343 l 2
 412 1410 419 1449 374 1449 c 0
 330 1449 311 1410 286 1301 c 2
 161 758 l 2
 145 687 144 652 197 652 c 0
 244 652 261 688 277 756 c 2
 327 976 l 2
 345 1055 337 1081 300 1081 c 0
EndSplineSet
EndChar

StartChar: uni2077
Encoding: 8311 8311 135
Width: 221
VWidth: 1920
Flags: HMW
LayerCount: 2
Fore
SplineSet
400 1448 m 2
 110 650 l 2
 106 638 97 629 90 629 c 6
 88 629 l 6
 81 629 77 638 81 650 c 2
 376 1444 l 1
 240 1444 l 2
 231 1444 225 1450 227 1457 c 2
 228 1459 l 2
 230 1466 238 1472 247 1472 c 2
 387 1472 l 2
 399 1472 404 1460 400 1448 c 2
EndSplineSet
EndChar

StartChar: uni2078
Encoding: 8312 8312 136
Width: 281
VWidth: 1920
Flags: HMW
LayerCount: 2
Fore
SplineSet
170 658 m 4
 213 658 228 683 241 740 c 6
 294 969 l 6
 305 1018 307 1048 260 1048 c 4
 213 1048 201 1018 190 969 c 6
 137 740 l 6
 124 683 127 658 170 658 c 4
266 1074 m 4
 296 1074 317 1099 328 1148 c 6
 382 1382 l 6
 394 1433 383 1456 354 1456 c 4
 325 1456 302 1433 290 1382 c 6
 236 1148 l 6
 225 1099 236 1074 266 1074 c 4
273 1065 m 5
 335 1065 336 1028 320 958 c 6
 270 742 l 6
 253 667 235 632 164 632 c 4
 94 632 90 667 107 742 c 6
 157 958 l 6
 173 1028 192 1065 254 1065 c 5
 253 1058 l 5
 207 1060 194 1088 210 1159 c 6
 261 1380 l 6
 276 1447 302 1482 360 1482 c 4
 419 1482 426 1447 411 1380 c 6
 360 1159 l 6
 344 1088 316 1060 270 1058 c 5
 273 1065 l 5
EndSplineSet
EndChar

StartChar: uni2079
Encoding: 8313 8313 137
Width: 256
VWidth: 1920
Flags: HMW
LayerCount: 2
Fore
SplineSet
238 1019 m 0
 280 1019 310 1059 323 1114 c 2
 328 1135 l 1
 330 1105 l 1
 314 1035 281 994 228 994 c 0
 170 994 162 1033 183 1125 c 2
 234 1347 l 2
 254 1432 279 1475 348 1475 c 0
 436 1475 424 1420 399 1311 c 2
 280 798 l 2
 252 678 225 625 155 625 c 0
 85 625 83 677 101 757 c 2
 131 888 l 6
 133 895 140 904 148 904 c 6
 149 904 l 6
 157 904 161 895 159 888 c 6
 129 757 l 2
 114 690 116 652 161 652 c 0
 205 652 225 690 250 799 c 2
 376 1342 l 2
 392 1413 395 1449 343 1449 c 0
 297 1449 278 1412 262 1344 c 2
 212 1125 l 2
 194 1046 201 1019 238 1019 c 0
EndSplineSet
EndChar

StartChar: uni00B9
Encoding: 185 185 138
Width: 258
VWidth: 1920
Flags: HMW
LayerCount: 2
Fore
SplineSet
336 1465 m 0
 345 1469 350 1478 356 1501 c 0
 357 1505 357 1506 361 1506 c 2
 368 1506 l 2
 372 1506 372 1505 371 1501 c 2
 173 645 l 2
 172 641 171 640 167 640 c 2
 147 640 l 2
 143 640 142 641 143 645 c 2
 331 1459 l 2
 332 1463 334 1464 336 1465 c 0
EndSplineSet
EndChar

StartChar: cent
Encoding: 162 162 154
Width: 317
VWidth: 1920
Flags: HMW
LayerCount: 2
Fore
SplineSet
329 1243 m 6
 331 1243 l 6
 338 1243 338 1235 336 1226 c 6
 12 -176 l 6
 9 -187 5 -193 -1 -193 c 6
 -3 -193 l 6
 -10 -193 -11 -187 -8 -176 c 6
 316 1226 l 6
 318 1235 322 1243 329 1243 c 6
EndSplineSet
Refer: 40 99 N 1 0 0 1 0 0 2
EndChar

StartChar: uni203D
Encoding: 8253 8253 157
Width: 396
VWidth: 1920
Flags: HMW
LayerCount: 2
Fore
SplineSet
280 950 m 2
 331 1170 l 2
 334 1182 340 1193 350 1193 c 2
 352 1193 l 2
 362 1193 364 1182 361 1170 c 2
 310 950 l 2
 308 943 290 857 287 850 c 2
 182 410 l 2
 180 403 176 400 169 400 c 2
 167 400 l 2
 160 400 158 403 160 410 c 2
 259 850 l 2
 261 857 278 943 280 950 c 2
82 -3 m 258
 78 -3 l 258
 65 -3 58 6 61 18 c 258
 101 192 l 258
 104 204 115 213 128 213 c 258
 132 213 l 258
 145 213 150 204 147 192 c 258
 107 18 l 258
 104 6 95 -3 82 -3 c 258
174 400 m 2
 168 400 l 2
 164 400 166 401 167 404 c 0
 208 585 305 645 383 982 c 258
 429 1183 l 258
 452 1283 456 1387 398 1387 c 256
 328 1387 293 1271 271 1175 c 258
 223 967 l 2
 221 957 215 949 206 949 c 2
 204 949 l 2
 195 949 191 957 193 967 c 2
 241 1175 l 258
 267 1287 311 1417 405 1417 c 256
 493 1417 485 1295 460 1185 c 258
 415 994 l 258
 344 687 215 557 181 404 c 0
 180 401 177 400 174 400 c 2
EndSplineSet
EndChar

StartChar: ordfeminine
Encoding: 170 170 159
Width: 364
VWidth: 1920
Flags: HMW
LayerCount: 2
Fore
SplineSet
178 834 m 0
 154 730 153 669 187 669 c 256
 229 669 295 806 329 952 c 257
 327 902 l 257
 294 759 237 639 181 639 c 256
 129 639 117 699 148 834 c 0
 183 985 210 1035 293 1096 c 256
 336 1128 377 1159 396 1242 c 257
 397 1202 l 257
 382 1139 349 1113 295 1071 c 256
 247 1034 208 964 178 834 c 0
306 852 m 258
 400 1262 l 258
 418 1342 444 1459 396 1459 c 256
 346 1459 325 1362 296 1236 c 0
 293 1223 285 1214 276 1214 c 2
 274 1214 l 2
 265 1214 262 1223 266 1236 c 0
 310 1379 315 1489 403 1489 c 256
 478 1489 461 1395 413 1187 c 258
 336 852 l 258
 314 758 312 705 317 661 c 0
 318 650 310 641 302 641 c 2
 301 641 l 2
 291 641 287 650 286 660 c 0
 281 705 284 757 306 852 c 258
EndSplineSet
EndChar

StartChar: exclamdown
Encoding: 161 161 160
Width: 275
VWidth: 1920
Flags: HMW
LayerCount: 2
Fore
SplineSet
257 1053 m 262
 261 1053 l 262
 274 1053 281 1044 278 1032 c 262
 238 858 l 262
 235 846 224 837 211 837 c 262
 207 837 l 262
 194 837 189 846 192 858 c 262
 232 1032 l 262
 235 1044 244 1053 257 1053 c 262
55 100 m 6
 -57 -385 l 6
 -59 -394 -65 -403 -75 -403 c 6
 -77 -403 l 6
 -87 -403 -89 -394 -87 -385 c 6
 25 100 l 6
 27 107 46 193 48 200 c 6
 147 610 l 6
 149 617 154 623 161 623 c 6
 162 623 l 6
 169 623 171 617 169 610 c 6
 76 200 l 6
 74 193 57 107 55 100 c 6
EndSplineSet
EndChar

StartChar: AE
Encoding: 198 198 161
Width: 749
VWidth: 1920
Flags: HMW
LayerCount: 2
Fore
SplineSet
169 465 m 25
 389 465 l 29
 389 435 l 29
 169 435 l 25
 169 465 l 25
616 1400 m 1
 -25 14 l 2
 -29 4 -36 -3 -45 -3 c 2
 -46 -3 l 2
 -55 -3 -59 4 -54 14 c 2
 572 1369 l 2
 580 1387 590 1400 607 1400 c 2
 616 1400 l 1
EndSplineSet
Refer: 16 69 N 1 0 0 1 309 0 2
EndChar

StartChar: questiondown
Encoding: 191 191 162
Width: 396
VWidth: 1920
Flags: HMW
LayerCount: 2
Fore
SplineSet
328 1053 m 262
 332 1053 l 262
 345 1053 352 1044 349 1032 c 262
 309 858 l 262
 306 846 295 837 282 837 c 262
 278 837 l 262
 265 837 260 846 263 858 c 262
 303 1032 l 262
 306 1044 315 1053 328 1053 c 262
237 653 m 6
 238 653 l 6
 244 653 244 649 243 646 c 4
 202 465 94 405 16 68 c 262
 -42 -183 l 262
 -65 -283 -69 -387 -11 -387 c 260
 59 -387 94 -271 116 -175 c 262
 175 83 l 6
 178 95 183 102 193 102 c 6
 195 102 l 6
 205 102 208 95 205 83 c 6
 146 -175 l 262
 120 -287 76 -417 -18 -417 c 260
 -106 -417 -98 -295 -73 -185 c 262
 -17 56 l 262
 54 363 195 493 229 646 c 4
 230 649 232 653 237 653 c 6
EndSplineSet
EndChar

StartChar: yen
Encoding: 165 165 163
Width: 390
VWidth: 1920
Flags: HMW
LayerCount: 2
Fore
SplineSet
2 499 m 14
 2 500 l 22
 4 509 13 514 24 514 c 14
 364 514 l 22
 375 514 380 508 378 499 c 14
 378 498 l 22
 376 489 368 484 357 484 c 14
 17 484 l 22
 6 484 0 490 2 499 c 14
32 626 m 14
 32 627 l 22
 34 636 42 641 53 641 c 14
 393 641 l 22
 404 641 410 635 408 626 c 14
 407 625 l 22
 405 616 397 611 386 611 c 14
 46 611 l 22
 35 611 30 617 32 626 c 14
EndSplineSet
Refer: 36 89 N 1 0 0 1 0 0 2
EndChar

StartChar: gravecomb
Encoding: 768 768 164
Width: 0
Flags: HMW
AnchorPoint: "top" -500 1000 mark 0
LayerCount: 2
Fore
SplineSet
-473 1101 m 6
 -474 1101 l 6
 -479 1101 -482 1106 -485 1121 c 6
 -532 1383 l 6
 -534 1395 -522 1403 -513 1403 c 6
 -512 1403 l 6
 -502 1403 -500 1396 -498 1382 c 6
 -462 1121 l 6
 -460 1108 -468 1101 -473 1101 c 6
EndSplineSet
EndChar

StartChar: acutecomb
Encoding: 769 769 165
Width: 0
Flags: HMW
AnchorPoint: "top" -437 1000 mark 0
LayerCount: 2
Fore
SplineSet
-409 1101 m 6
 -414 1101 -418 1108 -410 1121 c 6
 -254 1382 l 6
 -246 1396 -240 1403 -230 1403 c 6
 -229 1403 l 6
 -220 1403 -212 1395 -220 1383 c 6
 -387 1121 l 6
 -396 1106 -403 1101 -408 1101 c 6
 -409 1101 l 6
EndSplineSet
EndChar

StartChar: uni0302
Encoding: 770 770 166
Width: 0
VWidth: 1920
Flags: HMW
AnchorPoint: "top" -446 1000 mark 0
LayerCount: 2
Fore
SplineSet
-361 1371 m 261
 -514 1110 l 6
 -520 1100 -524 1097 -532 1097 c 6
 -534 1097 l 6
 -541 1097 -545 1101 -540 1110 c 6
 -373 1390 l 6
 -368 1398 -363 1403 -355 1403 c 6
 -353 1403 l 6
 -345 1403 -340 1398 -339 1390 c 6
 -298 1110 l 6
 -297 1104 -301 1097 -309 1097 c 6
 -311 1097 l 6
 -320 1097 -323 1101 -324 1110 c 6
 -361 1371 l 261
EndSplineSet
EndChar

StartChar: tildecomb
Encoding: 771 771 167
Width: 0
Flags: HMW
AnchorPoint: "top" -461 1000 mark 0
LayerCount: 2
Fore
SplineSet
-459 1267 m 256
 -510 1267 -525 1190 -533 1167 c 4
 -538 1154 -545 1145 -553 1145 c 6
 -555 1145 l 6
 -564 1145 -567 1154 -563 1167 c 4
 -541 1245 -508 1297 -453 1297 c 256
 -379 1297 -400 1164 -349 1164 c 256
 -298 1164 -283 1241 -275 1263 c 0
 -270 1277 -264 1286 -256 1286 c 2
 -255 1286 l 2
 -246 1286 -242 1277 -246 1263 c 0
 -268 1185 -301 1134 -356 1134 c 256
 -430 1134 -408 1267 -459 1267 c 256
EndSplineSet
EndChar

StartChar: uni0304
Encoding: 772 772 168
Width: 0
VWidth: 1920
Flags: HMW
AnchorPoint: "top" -449.132 1000 mark 0
LayerCount: 2
Fore
SplineSet
-558 1180 m 14
 -558 1182 l 22
 -558 1191 -551 1196 -540 1196 c 14
 -300 1196 l 22
 -289 1196 -282 1191 -282 1182 c 14
 -282 1180 l 22
 -282 1171 -289 1166 -300 1166 c 14
 -540 1166 l 22
 -551 1166 -558 1171 -558 1180 c 14
EndSplineSet
EndChar

StartChar: uni0306
Encoding: 774 774 169
Width: 0
VWidth: 1920
Flags: HMW
AnchorPoint: "top" -449 1000 mark 0
LayerCount: 2
Fore
SplineSet
-410 1171 m 4
 -355 1171 -308 1207 -296 1257 c 4
 -293 1268 -287 1275 -278 1275 c 6
 -276 1275 l 6
 -267 1275 -262 1268 -265 1255 c 4
 -278 1198 -325 1141 -417 1141 c 4
 -509 1141 -528 1199 -515 1257 c 4
 -512 1268 -505 1275 -496 1275 c 6
 -494 1275 l 6
 -485 1275 -481 1268 -484 1256 c 4
 -496 1205 -464 1171 -410 1171 c 4
EndSplineSet
EndChar

StartChar: uni0307
Encoding: 775 775 170
Width: 0
Flags: HMW
AnchorPoint: "top" -437.132 1000 mark 0
LayerCount: 2
Fore
SplineSet
-394 1159 m 2
 -398 1159 l 2
 -418 1159 -433 1173 -433 1193 c 2
 -433 1197 l 2
 -433 1216 -418 1231 -398 1231 c 2
 -394 1231 l 2
 -374 1231 -359 1216 -359 1197 c 2
 -359 1193 l 2
 -359 1173 -374 1159 -394 1159 c 2
  Spiro
    -394 1159 [
    -398 1159 ]
    -415.947 1163.36 o
    -428.379 1175.31 o
    -433 1193 [
    -433 1197 ]
    -428.379 1214.24 o
    -415.947 1226.42 o
    -398 1231 [
    -394 1231 ]
    -376.053 1226.42 o
    -363.621 1214.24 o
    -359 1197 [
    -359 1193 ]
    -363.621 1175.31 o
    -376.053 1163.36 o
    0 0 z
  EndSpiro
EndSplineSet
EndChar

StartChar: uni0308
Encoding: 776 776 171
Width: 0
Flags: HMW
AnchorPoint: "top" -437.132 1000 mark 0
LayerCount: 2
Fore
SplineSet
-461 1159 m 2
 -465 1159 l 2
 -485 1159 -500 1173 -500 1193 c 2
 -500 1197 l 2
 -500 1216 -485 1231 -465 1231 c 2
 -461 1231 l 2
 -441 1231 -426 1216 -426 1197 c 2
 -426 1193 l 2
 -426 1173 -441 1159 -461 1159 c 2
-316 1159 m 2
 -320 1159 l 2
 -340 1159 -355 1173 -355 1193 c 2
 -355 1197 l 2
 -355 1216 -340 1231 -320 1231 c 2
 -316 1231 l 2
 -296 1231 -281 1216 -281 1197 c 2
 -281 1193 l 2
 -281 1173 -296 1159 -316 1159 c 2
EndSplineSet
EndChar

StartChar: uni030A
Encoding: 778 778 172
Width: 0
Flags: HMW
AnchorPoint: "top" -594 1000 mark 0
LayerCount: 2
Fore
SplineSet
-458 1212 m 0
 -458 1160 -502 1117 -554 1117 c 0
 -607 1117 -652 1159 -652 1212 c 0
 -652 1263 -607 1307 -554 1307 c 0
 -501 1307 -458 1266 -458 1212 c 0
-488 1212 m 0
 -488 1250 -517 1277 -554 1277 c 0
 -591 1277 -622 1247 -622 1212 c 0
 -622 1175 -591 1147 -554 1147 c 0
 -518 1147 -488 1177 -488 1212 c 0
EndSplineSet
EndChar

StartChar: uni030B
Encoding: 779 779 173
Width: 0
Flags: HMW
AnchorPoint: "top" -431 1000 mark 0
LayerCount: 2
Fore
SplineSet
-339 1101 m 6
 -344 1101 -348 1108 -340 1121 c 6
 -184 1382 l 6
 -176 1396 -170 1403 -160 1403 c 6
 -159 1403 l 6
 -150 1403 -142 1395 -150 1383 c 6
 -317 1121 l 6
 -326 1106 -333 1101 -338 1101 c 6
 -339 1101 l 6
-469 1101 m 6
 -474 1101 -478 1108 -470 1121 c 6
 -314 1382 l 6
 -306 1396 -300 1403 -290 1403 c 6
 -289 1403 l 6
 -280 1403 -272 1395 -280 1383 c 6
 -447 1121 l 6
 -456 1106 -463 1101 -468 1101 c 6
 -469 1101 l 6
EndSplineSet
EndChar

StartChar: uni030C
Encoding: 780 780 174
Width: 0
Flags: HMW
AnchorPoint: "top" -443 1000 mark 0
LayerCount: 2
Fore
SplineSet
-407 1149 m 261
 -254 1410 l 6
 -248 1420 -244 1423 -236 1423 c 6
 -234 1423 l 6
 -227 1423 -223 1419 -228 1410 c 6
 -395 1130 l 6
 -400 1122 -405 1117 -413 1117 c 6
 -415 1117 l 6
 -423 1117 -428 1122 -429 1130 c 6
 -470 1410 l 6
 -471 1416 -467 1423 -459 1423 c 6
 -457 1423 l 6
 -448 1423 -445 1419 -444 1410 c 6
 -407 1149 l 261
EndSplineSet
EndChar

StartChar: uni030F
Encoding: 783 783 175
Width: 0
Flags: HMW
AnchorPoint: "top" -460 1000 mark 0
LayerCount: 2
Fore
SplineSet
-363 1101 m 2
 -364 1101 l 2
 -369 1101 -372 1106 -375 1121 c 2
 -422 1383 l 2
 -424 1395 -412 1403 -403 1403 c 2
 -402 1403 l 2
 -392 1403 -390 1396 -388 1382 c 2
 -352 1121 l 2
 -350 1108 -358 1101 -363 1101 c 2
-493 1101 m 6
 -494 1101 l 6
 -499 1101 -502 1106 -505 1121 c 6
 -552 1383 l 6
 -554 1395 -542 1403 -533 1403 c 6
 -532 1403 l 6
 -522 1403 -520 1396 -518 1382 c 6
 -482 1121 l 6
 -480 1108 -488 1101 -493 1101 c 6
EndSplineSet
EndChar

StartChar: uni0311
Encoding: 785 785 176
Width: 0
Flags: HMW
AnchorPoint: "top" -458 1152 mark 0
LayerCount: 2
Fore
SplineSet
-415 1339 m 0
 -470 1339 -517 1303 -529 1253 c 0
 -532 1242 -538 1235 -547 1235 c 2
 -549 1235 l 2
 -558 1235 -562 1242 -559 1255 c 0
 -546 1312 -500 1369 -408 1369 c 0
 -316 1369 -297 1311 -310 1253 c 0
 -313 1242 -320 1235 -329 1235 c 2
 -331 1235 l 2
 -340 1235 -343 1242 -340 1254 c 0
 -328 1305 -361 1339 -415 1339 c 0
EndSplineSet
EndChar

StartChar: dotbelowcomb
Encoding: 803 803 177
Width: 0
Flags: HMW
AnchorPoint: "bottom" -671 0 mark 0
LayerCount: 2
Fore
SplineSet
-725 -291 m 2
 -729 -291 l 2
 -749 -291 -764 -277 -764 -257 c 2
 -764 -253 l 2
 -764 -234 -749 -219 -729 -219 c 2
 -725 -219 l 2
 -705 -219 -690 -234 -690 -253 c 2
 -690 -257 l 2
 -690 -277 -705 -291 -725 -291 c 2
EndSplineSet
EndChar

StartChar: uni0326
Encoding: 806 806 178
Width: 0
Flags: HMW
AnchorPoint: "bottom" -681 0 mark 0
LayerCount: 2
Fore
SplineSet
-804 -373 m 6
 -805 -373 l 6
 -809 -373 -811 -367 -805 -359 c 6
 -768 -310 l 261
 -778 -310 l 6
 -791 -310 -793 -295 -790 -282 c 6
 -788 -275 l 6
 -783 -253 -770 -242 -748 -242 c 6
 -741 -242 l 6
 -719 -242 -710 -253 -715 -275 c 6
 -716 -279 l 6
 -721 -301 -732 -311 -742 -320 c 6
 -795 -368 l 6
 -799 -372 -802 -373 -804 -373 c 6
EndSplineSet
EndChar

StartChar: uni0327
Encoding: 807 807 179
Width: 1200
Flags: HMW
AnchorPoint: "bottom" -631 0 mark 0
LayerCount: 2
Fore
SplineSet
-834 -450 m 0
 -864 -450 -881 -446 -905 -431 c 0
 -913 -426 -914 -410 -907 -404 c 6
 -905 -402 l 6
 -899 -397 -889 -400 -883 -404 c 0
 -864 -419 -852 -421 -827 -421 c 0
 -800 -421 -753 -412 -733 -326 c 0
 -714 -243 -746 -220 -810 -220 c 0
 -817 -220 -821 -220 -822 -216 c 2
 -822 -214 l 2
 -823 -210 -821 -206 -814 -198 c 2
 -629 10 l 1
 -600 10 l 1
 -795 -206 l 1
 -787 -204 -771 -204 -763 -204 c 0
 -720 -204 -682 -236 -703 -326 c 0
 -725 -420 -777 -450 -834 -450 c 0
EndSplineSet
EndChar

StartChar: uni0328
Encoding: 808 808 180
Width: 1200
Flags: HMW
AnchorPoint: "ogonek" -656 0 mark 0
LayerCount: 2
Fore
SplineSet
-736 -357 m 6
 -737 -359 l 2
 -739 -367 -744 -372 -758 -372 c 2
 -788 -372 l 2
 -882 -372 -924 -311 -901 -212 c 0
 -878 -113 -778 -72 -638 13 c 1
 -632 0 l 1
 -740 -71 -850 -120 -871 -212 c 0
 -890 -293 -855 -342 -775 -342 c 2
 -751 -342 l 2
 -737 -342 -734 -349 -736 -357 c 6
EndSplineSet
EndChar

StartChar: uni0312
Encoding: 786 786 181
Width: 0
Flags: HMW
AnchorPoint: "top" -505 950 mark 0
LayerCount: 2
Fore
SplineSet
-360 1431 m 258
 -359 1431 l 258
 -351 1431 -351 1423 -355 1413 c 266
 -435 1220 l 257
 -433 1220 l 258
 -420 1220 -418 1215 -421 1201 c 258
 -461 1027 l 258
 -464 1015 -473 1007 -486 1007 c 258
 -490 1007 l 258
 -503 1007 -509 1015 -506 1027 c 258
 -470 1182 l 258
 -467 1193 -459 1212 -454 1223 c 258
 -378 1411 l 258
 -372 1426 -367 1431 -360 1431 c 258
EndSplineSet
EndChar

StartChar: sterling
Encoding: 163 163 182
Width: 470
VWidth: 1920
Flags: HMW
LayerCount: 2
Fore
SplineSet
103 699 m 10
 104 700 l 18
 106 709 116 715 125 715 c 10
 345 715 l 18
 354 715 362 709 360 700 c 10
 359 699 l 18
 357 690 347 685 338 685 c 10
 118 685 l 18
 109 685 101 690 103 699 c 10
-26 34 m 0
 39 89 168 362 222 597 c 0
 268 796 199 907 253 1141 c 0
 291 1306 331 1417 445 1417 c 0
 562 1417 541 1285 471 977 c 0
 468 966 460 957 451 957 c 6
 449 957 l 6
 441 957 437 966 439 977 c 0
 492 1218 535 1387 438 1387 c 0
 351 1387 316 1281 286 1151 c 0
 232 915 301 810 252 597 c 0
 201 376 65 73 -4 30 c 1
 292 30 l 2
 303 30 308 24 306 15 c 2
 306 14 l 2
 304 5 296 0 285 0 c 2
 -25 0 l 2
 -34 0 -42 6 -40 15 c 2
 -39 16 l 2
 -38 22 -32 29 -26 34 c 0
EndSplineSet
EndChar

StartChar: currency
Encoding: 164 164 183
Width: 1112
Flags: HMW
LayerCount: 2
Fore
SplineSet
873 936 m 10
 874 935 l 18
 877 931 876 921 869 915 c 10
 800 858 l 18
 798 856 795 856 793 858 c 10
 782 872 l 18
 780 874 782 878 784 880 c 10
 853 936 l 18
 860 942 870 940 873 936 c 10
394 557 m 10
 404 543 l 18
 406 541 405 537 403 535 c 10
 340 484 l 18
 330 476 318 474 314 479 c 10
 313 480 l 18
 309 485 314 496 324 505 c 10
 387 557 l 18
 389 559 392 559 394 557 c 10
419 936 m 10
 420 937 l 18
 426 941 435 942 439 936 c 10
 482 880 l 18
 484 878 482 874 480 872 c 10
 463 858 l 18
 461 856 458 856 456 858 c 10
 413 915 l 18
 409 921 413 932 419 936 c 10
706 543 m 10
 724 557 l 18
 726 559 729 559 731 557 c 10
 773 500 l 18
 777 494 775 484 769 480 c 10
 768 479 l 18
 762 475 752 473 748 479 c 10
 705 535 l 18
 703 537 704 541 706 543 c 10
350 709 m 0
 381 843 518 954 652 954 c 0
 786 954 871 843 840 709 c 0
 809 575 673 464 539 464 c 0
 405 464 319 575 350 709 c 0
380 709 m 0
 354 595 422 494 546 494 c 0
 670 494 784 595 810 709 c 0
 836 823 769 924 645 924 c 0
 521 924 406 823 380 709 c 0
EndSplineSet
EndChar

StartChar: brokenbar
Encoding: 166 166 184
Width: 365
VWidth: 1920
Flags: HMW
LayerCount: 2
Fore
SplineSet
162 433 m 10
 164 433 l 18
 173 433 176 424 173 410 c 10
 -0 -340 l 22
 -3 -354 -11 -363 -20 -363 c 14
 -22 -363 l 22
 -31 -363 -33 -354 -30 -340 c 14
 143 410 l 18
 146 424 153 433 162 433 c 10
432 1603 m 10
 434 1603 l 18
 443 1603 446 1593 443 1580 c 10
 270 830 l 18
 267 816 259 807 250 807 c 10
 248 807 l 18
 239 807 237 816 240 830 c 10
 413 1580 l 18
 416 1593 423 1603 432 1603 c 10
EndSplineSet
EndChar

StartChar: section
Encoding: 167 167 185
Width: 568
VWidth: 1920
Flags: HMW
LayerCount: 2
Fore
SplineSet
339 890 m 257
 267 890 178 776 137 598 c 256
 98 431 127 344 194 241 c 256
 283 105 301 47 269 -93 c 256
 229 -265 158 -370 64 -370 c 256
 -33 -370 -41 -267 -3 -67 c 0
 -1 -56 9 -45 18 -45 c 6
 19 -45 l 6
 28 -45 30 -56 28 -68 c 0
 -3 -238 -1 -340 71 -340 c 256
 145 -340 204 -243 239 -93 c 256
 271 45 232 121 171 212 c 256
 80 347 75 456 107 593 c 256
 154 795 246 900 348 900 c 257
 339 890 l 257
227 145 m 257
 299 145 389 259 430 437 c 256
 469 604 440 691 373 794 c 256
 284 930 266 988 298 1128 c 256
 338 1300 409 1405 503 1405 c 256
 600 1405 608 1302 570 1102 c 0
 568 1091 559 1080 550 1080 c 2
 549 1080 l 2
 540 1080 537 1091 539 1103 c 0
 570 1273 568 1375 496 1375 c 256
 422 1375 363 1278 328 1128 c 256
 296 990 335 914 396 823 c 256
 487 688 492 579 460 442 c 256
 413 240 321 135 219 135 c 257
 227 145 l 257
EndSplineSet
EndChar

StartChar: copyright
Encoding: 169 169 186
Width: 844
Flags: HMW
LayerCount: 2
Fore
SplineSet
532 606 m 256
 467 324 446 247 351 247 c 256
 268 247 282 327 314 465 c 258
 409 875 l 258
 444 1025 481 1093 555 1093 c 256
 634 1093 620 997 570 782 c 256
 568 774 564 765 557 765 c 258
 556 765 l 258
 549 765 550 774 552 782 c 256
 598 988 610 1075 551 1075 c 256
 480 1075 455 995 428 878 c 258
 332 462 l 258
 306 351 288 265 355 265 c 256
 431 265 451 332 514 606 c 256
 516 613 519 617 524 617 c 258
 525 617 l 258
 530 617 534 613 532 606 c 256
803 668 m 0
 714 284 609 -28 295 -28 c 0
 -19 -28 20 284 109 668 c 0
 198 1052 302 1366 616 1366 c 0
 930 1366 892 1052 803 668 c 0
773 668 m 0
 851 1006 917 1336 609 1336 c 0
 301 1336 217 1006 139 668 c 0
 61 330 -7 2 301 2 c 0
 609 2 695 330 773 668 c 0
EndSplineSet
EndChar

StartChar: registered
Encoding: 174 174 188
Width: 844
Flags: HMW
LayerCount: 2
Fore
SplineSet
499 1102 m 261
 409 712 l 261
 448 712 l 262
 487 712 529 748 547 826 c 262
 582 977 l 262
 599 1049 601 1102 538 1102 c 262
 499 1102 l 261
543 1120 m 262
 617 1120 622 1073 598 971 c 262
 567 838 l 262
 542 730 487 703 446 703 c 261
 447 706 l 261
 488 706 529 689 512 617 c 262
 467 421 l 262
 451 350 454 318 463 298 c 4
 464 294 465 291 464 286 c 6
 464 285 l 6
 463 281 459 279 455 279 c 6
 454 279 l 6
 449 279 448 281 446 283 c 4
 435 307 429 335 449 421 c 262
 497 626 l 262
 507 668 490 697 445 697 c 262
 406 697 l 261
 312 289 l 6
 311 284 307 279 301 279 c 6
 299 279 l 6
 293 279 293 284 294 289 c 6
 482 1105 l 6
 484 1115 491 1120 501 1120 c 6
 543 1120 l 262
803 668 m 0
 714 284 609 -28 295 -28 c 0
 -19 -28 20 284 109 668 c 0
 198 1052 302 1366 616 1366 c 0
 930 1366 892 1052 803 668 c 0
773 668 m 0
 851 1006 917 1336 609 1336 c 0
 301 1336 217 1006 139 668 c 0
 61 330 -7 2 301 2 c 0
 609 2 695 330 773 668 c 0
EndSplineSet
EndChar

StartChar: dotlessi
Encoding: 305 305 279
Width: 168
VWidth: 1104
Flags: HMW
AnchorPoint: "top" 206.411 1050 basechar 0
LayerCount: 2
Fore
SplineSet
218 1034 m 262
 -17 16 l 262
 -20 3 -25 -3 -36 -3 c 262
 -38 -3 l 262
 -49 -3 -50 3 -47 16 c 262
 188 1034 l 262
 191 1047 195 1053 206 1053 c 262
 208 1053 l 262
 219 1053 221 1047 218 1034 c 262
EndSplineSet
EndChar

StartChar: uni0237
Encoding: 567 567 291
Width: 168
VWidth: 1104
Flags: HMW
AnchorPoint: "top" 207 1050 basechar 0
LayerCount: 2
Fore
SplineSet
-34 -59 m 2
 -83 -271 -123 -371 -172 -371 c 0
 -241 -371 -182 -199 -142 -107 c 0
 -140 -102 -137 -98 -133 -98 c 2
 -132 -98 l 2
 -127 -98 -124.254557404 -102.882545672 -126 -107 c 0
 -165 -199 -210 -345 -170 -345 c 0
 -137 -345 -109 -255 -64 -60 c 2
 190 1040 l 2
 191.585163309 1046.86488047 197 1054 206 1054 c 2
 207 1054 l 2
 216 1054 221.586505564 1046.8644473 220 1040 c 2
 -34 -59 l 2
EndSplineSet
EndChar

StartChar: kgreenlandic
Encoding: 312 312 298
Width: 298
VWidth: 1104
Flags: HMW
LayerCount: 2
Fore
SplineSet
207 1053 m 6
 209 1053 l 6
 218 1053 221 1043 219 1034 c 6
 -16 16 l 2
 -19 5 -26 -3 -35 -3 c 2
 -37 -3 l 2
 -46 -3 -49 5 -46 16 c 2
 189 1034 l 6
 191 1043 199 1053 207 1053 c 6
58 412 m 1
 349 1032 l 2
 355 1045 362 1053 371 1053 c 2
 372 1053 l 2
 381 1053 383 1045 377 1032 c 2
 55 367 l 1
 58 412 l 1
178 661 m 1
 203 709 l 1
 152 18 l 2
 151 7 145 -3 134 -3 c 2
 133 -3 l 2
 123 -3 120 7 121 18 c 2
 178 661 l 1
EndSplineSet
EndChar

StartChar: grave
Encoding: 96 96 339
Width: 311
VWidth: 0
Flags: HMW
LayerCount: 2
Fore
SplineSet
336 1101 m 6
 335 1101 l 6
 330 1101 327 1106 324 1121 c 6
 277 1383 l 6
 275 1395 287 1403 296 1403 c 6
 297 1403 l 6
 307 1403 309 1396 311 1382 c 6
 347 1121 l 6
 349 1108 341 1101 336 1101 c 6
EndSplineSet
EndChar

StartChar: longs
Encoding: 383 383 352
Width: 217
VWidth: 1104
Flags: HMW
LayerCount: 2
Fore
SplineSet
277 1314 m 6
 304 1433 322 1472 413 1461 c 4
 424 1460 430 1457 428 1448 c 6
 427 1447 l 6
 425 1439 416 1436 404 1437 c 4
 336 1444 327 1397 308 1314 c 6
 -75 -345 l 6
 -78 -360 -86 -364 -95 -364 c 6
 -97 -364 l 6
 -106 -364 -109 -360 -106 -345 c 6
 277 1314 l 6
EndSplineSet
EndChar

StartChar: uni0259
Encoding: 601 601 359
Width: 336
VWidth: 1104
Flags: HMW
LayerCount: 2
Fore
SplineSet
103 667 m 0
 173 946 212 1060 294 1060 c 4
 367 1060 381 970 340 792 c 2
 216 257 l 2
 176 85 122 -10 46 -10 c 0
 -26 -10 -27 71 2 226 c 0
 25 352 38 402 67 528 c 0
 71 547 77 553 98 553 c 2
 268 553 l 1
 262 527 l 1
 94 527 l 1
 -7 80 -2 17 52 17 c 0
 108 17 154 115 184 245 c 2
 313 805 l 2
 344 939 342 1033 286 1033 c 0
 227 1033 194 932 124 665 c 0
 121 653 117 644 109 644 c 2
 108 644 l 2
 100 644 99 652 103 667 c 0
EndSplineSet
EndChar

StartChar: logicalnot
Encoding: 172 172 373
Width: 600
VWidth: 2048
Flags: HMW
LayerCount: 2
Fore
SplineSet
109 679 m 2
 109 681 l 2
 112 693 122 695 131 695 c 2
 500 695 l 2
 517 695 523 682 519 665 c 2
 442 335 l 6
 439 321 432 312 423 312 c 2
 421 312 l 6
 412 312 409 321 412 335 c 6
 489 665 l 1
 125 665 l 2
 116 665 106 667 109 679 c 2
EndSplineSet
EndChar

StartChar: acute
Encoding: 180 180 374
Width: 311
VWidth: 0
Flags: HMW
LayerCount: 2
Fore
SplineSet
217 1101 m 6
 212 1101 208 1108 216 1121 c 6
 372 1382 l 6
 380 1396 386 1403 396 1403 c 6
 397 1403 l 6
 406 1403 414 1395 406 1383 c 6
 239 1121 l 6
 230 1106 223 1101 218 1101 c 6
 217 1101 l 6
EndSplineSet
EndChar

StartChar: degree
Encoding: 176 176 376
Width: 440
VWidth: 2048
Flags: HMW
LayerCount: 2
Fore
SplineSet
217 1241 m 258
 220 1258 l 258
 242 1353 337 1417 425 1417 c 256
 513 1417 582 1353 560 1258 c 258
 557 1241 l 258
 535 1146 436 1081 348 1081 c 256
 260 1081 195 1146 217 1241 c 258
245 1235 m 262
 229 1165 276 1111 354 1111 c 256
 432 1111 509 1165 525 1235 c 262
 532 1263 l 258
 548 1333 496 1387 418 1387 c 256
 340 1387 268 1333 252 1263 c 258
 245 1235 l 262
EndSplineSet
EndChar

StartChar: plusminus
Encoding: 177 177 377
Width: 576
Flags: HMW
LayerCount: 2
Fore
SplineSet
55 555 m 10
 55 556 l 18
 57 565 67 570 78 570 c 10
 522 570 l 22
 533 570 539 565 537 556 c 14
 537 555 l 22
 535 546 526 540 515 540 c 14
 71 540 l 18
 60 540 53 546 55 555 c 10
145 945 m 10
 145 946 l 18
 147 955 154 960 168 960 c 10
 612 960 l 18
 623 960 629 954 627 946 c 10
 627 945 l 18
 625 936 616 930 605 930 c 10
 161 930 l 18
 147 930 143 936 145 945 c 10
442 1171 m 10
 444 1171 l 18
 453 1171 460 1163 457 1152 c 10
 358 722 l 18
 355 711 346 705 337 705 c 10
 335 705 l 18
 326 705 319 711 322 722 c 10
 421 1152 l 18
 424 1163 433 1171 442 1171 c 10
EndSplineSet
EndChar

StartChar: ae
Encoding: 230 230 379
Width: 497
VWidth: 1104
Flags: HMW
LayerCount: 2
Fore
SplineSet
31 288 m 0
 -23 56 -4 23 35 23 c 0
 75 23 125 86 172 288 c 1
 179 264 l 1
 129 46 77 -5 21 -5 c 0
 -21 -5 -61 19 0 282 c 0
 43 467 98 526 167 594 c 0
 215 641 263 679 286 780 c 1
 294 766 l 1
 266 644 217 610 179 571 c 0
 117 508 67 445 31 288 c 0
145 170 m 9
 317 915 l 2
 336 997 323 1023 295 1023 c 0
 248 1023 210 975 148 732 c 0
 146 724 140 713 131 713 c 2
 130 713 l 2
 121 713 118 724 120 732 c 0
 186 993 233 1055 305 1055 c 0
 353 1055 359 1011 335 907 c 2
 165 170 l 17
 145 170 l 9
404 388 m 0
 332 110 300 -10 212 -10 c 0
 139 -10 135 80 176 258 c 2
 299 793 l 2
 339 965 384 1060 460 1060 c 0
 532 1060 532 979 503 824 c 0
 480 698 468 648 439 522 c 0
 436 508 424 497 408 497 c 2
 238 497 l 1
 244 523 l 1
 412 523 l 1
 513 970 507 1033 453 1033 c 0
 397 1033 352 935 322 805 c 2
 193 245 l 2
 162 111 163 17 219 17 c 0
 278 17 308 110 383 390 c 0
 385 398 390 406 397 406 c 2
 398 406 l 2
 405 406 406 397 404 388 c 0
EndSplineSet
EndChar

StartChar: paragraph
Encoding: 182 182 380
Width: 492
VWidth: 1920
Flags: HMW
LayerCount: 2
Fore
SplineSet
578 1370 m 1
 182 -345 l 6
 180 -355 173 -363 164 -363 c 6
 162 -363 l 6
 153 -363 150 -355 152 -345 c 6
 548 1370 l 1
 478 1370 l 1
 82 -345 l 6
 80 -355 73 -363 64 -363 c 6
 62 -363 l 6
 53 -363 50 -355 52 -345 c 6
 271 600 l 1
 266 600 l 2
 162 600 91 698 153 968 c 2
 168 1032 l 2
 230 1302 346 1400 450 1400 c 2
 622 1400 l 2
 631 1400 637 1395 635 1385 c 2
 635 1384 l 2
 633 1375 626 1370 615 1370 c 2
 578 1370 l 1
EndSplineSet
EndChar

StartChar: guilsinglleft
Encoding: 8249 8249 381
Width: 630
Flags: HMW
LayerCount: 2
Fore
SplineSet
388 282 m 6
 172 529 l 6
 166 536 161 544 164 558 c 6
 165 562 l 6
 168 576 177 585 186 591 c 6
 518 816 l 6
 531 825 542 817 539 806 c 6
 539 805 l 6
 536 794 526 788 509 776 c 6
 188 560 l 261
 397 322 l 6
 415 301 420 288 418 280 c 6
 417 279 l 6
 415 272 406 262 388 282 c 6
EndSplineSet
EndChar

StartChar: guilsinglright
Encoding: 8250 8250 382
Width: 630
Flags: HMW
LayerCount: 2
Fore
SplineSet
257 823 m 6
 473 576 l 6
 478 569 484 561 481 547 c 6
 480 543 l 6
 477 529 468 520 459 514 c 6
 127 289 l 6
 114 280 103 288 106 299 c 6
 106 300 l 6
 109 311 118 317 136 329 c 6
 457 545 l 261
 248 783 l 6
 230 804 225 817 227 825 c 6
 228 826 l 6
 230 833 240 843 257 823 c 6
EndSplineSet
EndChar

StartChar: mu
Encoding: 181 181 385
Width: 336
VWidth: 1104
Flags: HMW
LayerCount: 2
Fore
SplineSet
209 1053 m 2
 210 1053 l 2
 220 1053 223 1045 220 1034 c 2
 -98 -344 l 6
 -101 -355 -107 -363 -117 -363 c 6
 -118 -363 l 6
 -128 -363 -130 -355 -127 -344 c 6
 191 1034 l 2
 194 1045 199 1053 209 1053 c 2
132 -3 m 2
 130 -3 l 2
 121 -3 120 4 122 13 c 2
 153 148 l 1
 154 164 l 1
 355 1034 l 2
 358 1045 365 1053 374 1053 c 2
 375 1053 l 2
 384 1053 389 1045 386 1034 c 2
 150 13 l 2
 148 4 141 -3 132 -3 c 2
173 211 m 1
 143 83 89 -10 37 -10 c 0
 -22 -10 -17 49 11 169 c 2
 197 974 l 2
 198 978 198 990 202 990 c 2
 205 990 l 2
 209 990 207 978 206 974 c 2
 20 169 l 2
 1 87 -9 17 41 17 c 0
 89 17 145 124 173 245 c 1
 173 211 l 1
EndSplineSet
EndChar

StartChar: Eth
Encoding: 208 208 387
Width: 406
VWidth: 1920
Flags: HMW
LayerCount: 2
Fore
SplineSet
7 718 m 14
 7 720 l 22
 7 728 14 734 23 734 c 14
 269 734 l 22
 279 734 286 728 286 720 c 14
 286 718 l 22
 286 710 279 704 269 704 c 14
 23 704 l 22
 14 704 7 710 7 718 c 14
EndSplineSet
Refer: 15 68 N 1 0 0 1 0 0 2
EndChar

StartChar: Dcroat
Encoding: 272 272 388
Width: 406
VWidth: 1920
Flags: HMW
LayerCount: 2
Fore
SplineSet
7 718 m 14
 7 720 l 22
 7 728 14 734 23 734 c 14
 269 734 l 22
 279 734 286 728 286 720 c 14
 286 718 l 22
 286 710 279 704 269 704 c 14
 23 704 l 22
 14 704 7 710 7 718 c 14
EndSplineSet
Refer: 15 68 N 1 0 0 1 0 0 2
EndChar

StartChar: thorn
Encoding: 254 254 389
Width: 344
VWidth: 1104
Flags: HMW
LayerCount: 2
Fore
SplineSet
300 1453 m 2
 301 1453 l 2
 310 1453 315 1445 312 1434 c 2
 -106 -378 l 2
 -109 -389 -117 -397 -126 -397 c 6
 -127 -397 l 6
 -136 -397 -140 -389 -137 -378 c 2
 281 1434 l 2
 284 1445 291 1453 300 1453 c 2
163 829 m 1
 200 990 247 1070 318 1070 c 0
 369 1070 407 1029 365 845 c 2
 222 224 l 2
 185 62 133 -10 67 -10 c 0
 0 -10 -11 81 26 242 c 1
 38 245 l 1
 10 124 18 19 71 19 c 0
 121 19 161 109 185 212 c 2
 334 859 l 2
 363 985 349 1041 299 1041 c 0
 248 1041 200 947 172 826 c 1
 163 829 l 1
EndSplineSet
EndChar

StartChar: Thorn
Encoding: 222 222 390
Width: 440
VWidth: 1920
Flags: HMW
LayerCount: 2
Fore
SplineSet
336 1110 m 2
 453 1110 474 1062 432 882 c 2
 371 618 l 2
 332 448 289 400 172 400 c 2
 127 400 l 1
 38 14 l 6
 36 4 30 -3 20 -3 c 6
 18 -3 l 6
 8 -3 6 4 8 14 c 6
 325 1385 l 2
 327 1395 334 1403 344 1403 c 2
 345 1403 l 2
 355 1403 357 1395 355 1385 c 2
 291 1110 l 1
 336 1110 l 2
134 430 m 1
 179 430 l 2
 266 430 303 458 338 608 c 2
 404 892 l 2
 439 1042 416 1080 329 1080 c 2
 284 1080 l 1
 134 430 l 1
EndSplineSet
EndChar

StartChar: divide
Encoding: 247 247 391
Width: 600
VWidth: 2048
Flags: HMW
LayerCount: 2
Fore
SplineSet
87 693 m 14
 87 695 l 22
 87 704 96 709 105 709 c 14
 575 709 l 22
 584 709 594 703 594 695 c 14
 594 693 l 22
 594 685 584 679 575 679 c 14
 105 679 l 22
 96 679 87 684 87 693 c 14
EndSplineSet
Refer: 1 46 N 1 0 0 1 353 930 2
Refer: 1 46 N 1 0 0 1 193 240 2
EndChar

StartChar: multiply
Encoding: 215 215 392
Width: 580
VWidth: 1920
Flags: HMW
LayerCount: 2
Fore
SplineSet
466 544 m 10
 464 543 l 18
 459 539 451 539 447 544 c 10
 200 863 l 18
 197 867 197 876 203 881 c 10
 206 883 l 18
 212 888 219 885 222 881 c 10
 469 562 l 18
 473 557 471 548 466 544 c 10
126 543 m 10
 126 544 l 18
 123 548 125 557 131 562 c 10
 524 881 l 18
 529 885 539 886 542 882 c 10
 543 880 l 18
 546 876 543 867 538 863 c 10
 145 544 l 18
 139 539 129 539 126 543 c 10
EndSplineSet
EndChar

StartChar: Oslash
Encoding: 216 216 393
Width: 415
VWidth: 1920
Flags: HMW
LayerCount: 2
Fore
SplineSet
529 1477 m 6
 530 1477 l 6
 542 1477 542 1467 538 1455 c 6
 -28 -59 l 6
 -32 -69 -36 -74 -43 -74 c 6
 -45 -74 l 6
 -56 -74 -57 -63 -54 -55 c 6
 514 1464 l 6
 518 1474 523 1477 529 1477 c 6
EndSplineSet
Refer: 26 79 N 1 0 0 1 0 0 2
EndChar

StartChar: oslash
Encoding: 248 248 394
Width: 349
VWidth: 1920
Flags: HMW
LayerCount: 2
Fore
SplineSet
388 1199 m 6
 389 1199 l 6
 401 1199 402 1189 397 1177 c 6
 -8 -59 l 6
 -11 -69 -16 -74 -23 -74 c 6
 -25 -74 l 6
 -36 -74 -37 -63 -34 -55 c 6
 373 1186 l 6
 376 1196 382 1199 388 1199 c 6
EndSplineSet
Refer: 52 111 N 1 0 0 1 0 0 2
EndChar

StartChar: germandbls
Encoding: 223 223 396
Width: 453
VWidth: 1920
Flags: HMW
LayerCount: 2
Fore
SplineSet
259 1188 m 2
 299 1362 339 1487 414 1487 c 0
 506 1487 493 1372 454 1205 c 0
 409 1008 362 935 334 815 c 0
 277 566 381 563 321 302 c 0
 272 90 217 3 116 -5 c 0
 105 -6 98 0 100 9 c 2
 101 11 l 2
 103 20 112 26 123 28 c 0
 198 40 250 124 291 302 c 0
 347 545 241 544 304 815 c 0
 337 957 382 1025 424 1205 c 0
 450 1316 477 1457 412 1457 c 0
 357 1457 317 1301 286 1168 c 2
 19 15 l 2
 16 4 8 -3 0 -3 c 2
 -2 -3 l 2
 -10 -3 -15 4 -12 15 c 2
 259 1188 l 2
EndSplineSet
EndChar

StartChar: eth
Encoding: 240 240 397
Width: 372
VWidth: 1920
Flags: HMW
LayerCount: 2
Fore
SplineSet
301 1247 m 10
 300 1249 l 2
 299 1254 305 1263 315 1269 c 10
 515 1382 l 18
 527 1389 532 1387 534 1384 c 2
 534 1383 l 18
 539 1377 535 1367 523 1360 c 2
 322 1246 l 2
 314 1241 303 1240 301 1247 c 10
278 1025 m 256
 213 1025 176 909 149 793 c 258
 23 249 l 258
 -6 124 -13 25 67 25 c 256
 155 25 189 132 213 237 c 258
 360 873 l 258
 444 1236 449 1373 315 1437 c 0
 305 1442 304 1454 310 1462 c 2
 311 1464 l 2
 317 1472 325 1475 336 1470 c 0
 495 1397 466 1203 411 965 c 258
 250 269 l 258
 215 119 178 -5 60 -5 c 256
 -36 -5 -43 90 -11 229 c 258
 122 807 l 258
 154 944 199 1055 277 1055 c 256
 365 1055 384 952 362 855 c 257
 335 767 l 257
 348 825 l 258
 369 917 343 1025 278 1025 c 256
EndSplineSet
EndChar

StartChar: dcroat
Encoding: 273 273 398
Width: 344
VWidth: 1920
Flags: HMW
LayerCount: 2
Fore
SplineSet
323 1255 m 14
 323 1257 l 22
 323 1265 330 1271 339 1271 c 14
 536 1271 l 22
 546 1271 553 1265 553 1257 c 14
 553 1255 l 22
 553 1247 546 1241 536 1241 c 14
 339 1241 l 22
 330 1241 323 1247 323 1255 c 14
EndSplineSet
Refer: 41 100 N 1 0 0 1 0 0 2
EndChar

StartChar: Hbar
Encoding: 294 294 399
Width: 400
VWidth: 1920
Flags: HMW
LayerCount: 2
Fore
SplineSet
107 1135 m 14
 107 1137 l 22
 107 1145 114 1151 123 1151 c 14
 556 1151 l 22
 566 1151 573 1145 573 1137 c 14
 573 1135 l 22
 573 1127 566 1121 556 1121 c 14
 123 1121 l 22
 114 1121 107 1127 107 1135 c 14
EndSplineSet
Refer: 19 72 N 1 0 0 1 0 0 2
EndChar

StartChar: hbar
Encoding: 295 295 400
Width: 336
VWidth: 1920
Flags: HMW
LayerCount: 2
Fore
SplineSet
149 1280 m 14
 149 1282 l 22
 149 1290 156 1296 165 1296 c 14
 382 1296 l 22
 392 1296 399 1290 399 1282 c 14
 399 1280 l 22
 399 1272 392 1266 382 1266 c 14
 165 1266 l 22
 156 1266 149 1272 149 1280 c 14
EndSplineSet
Refer: 45 104 N 1 0 0 1 0 0 2
EndChar

StartChar: Lslash
Encoding: 321 321 405
Width: 273
VWidth: 1920
Flags: HMW
LayerCount: 2
Fore
SplineSet
302 951 m 6
 302 949 l 6
 304 942 297 931 288 926 c 6
 46 803 l 6
 38 799 30 799 27 809 c 6
 26 811 l 6
 24 818 30 826 38 830 c 6
 279 953 l 6
 292 960 300 958 302 951 c 6
EndSplineSet
Refer: 23 76 N 1 0 0 1 0 0 2
EndChar

StartChar: lslash
Encoding: 322 322 406
Width: 174
VWidth: 1920
Flags: HMW
LayerCount: 2
Fore
SplineSet
302 951 m 6
 302 949 l 6
 304 942 297 931 288 926 c 6
 46 803 l 6
 38 799 30 799 27 809 c 6
 26 811 l 6
 24 818 30 826 38 830 c 6
 279 953 l 6
 292 960 300 958 302 951 c 6
EndSplineSet
Refer: 49 108 N 1 0 0 1 0 0 2
EndChar

StartChar: eng
Encoding: 331 331 408
Width: 336
VWidth: 1104
Flags: HMW
LayerCount: 2
Fore
SplineSet
208 1053 m 2
 210 1053 l 2
 219 1053 221 1046 218 1034 c 2
 187 902 l 1
 187 886 l 1
 -14 16 l 2
 -17 4 -24 -3 -33 -3 c 2
 -35 -3 l 2
 -44 -3 -47 4 -44 16 c 2
 191 1034 l 2
 194 1046 199 1053 208 1053 c 2
134 -55 m 6
 107 -174 83 -219 -16 -203 c 0
 -26 -201 -34 -198 -32 -189 c 2
 -31 -188 l 2
 -29 -179 -19 -175 -10 -177 c 0
 63 -190 82 -158 101 -74 c 2
 321 881 l 2
 340 963 349 1033 299 1033 c 0
 251 1033 196 926 168 805 c 1
 168 839 l 1
 198 967 242 1060 314 1060 c 0
 373 1060 378 1001 350 881 c 2
 134 -55 l 6
EndSplineSet
EndChar

StartChar: Eng
Encoding: 330 330 409
Width: 400
VWidth: 960
Flags: HMW
LayerCount: 2
Fore
SplineSet
520 1403 m 2
 522 1403 l 2
 533 1403 534 1394 530 1378 c 2
 199 -55 l 2
 172 -174 148 -219 49 -203 c 0
 39 -201 31 -198 33 -189 c 2
 34 -188 l 2
 36 -179 46 -175 55 -177 c 0
 128 -190 146 -158 165 -74 c 2
 198 68 l 1
 268 1248 l 1
 -17 15 l 2
 -19 6 -24 -3 -35 -3 c 2
 -37 -3 l 2
 -48 -3 -49 6 -47 15 c 2
 270 1385 l 2
 273 1396 279 1403 287 1403 c 2
 288 1403 l 2
 296 1403 301 1394 300 1383 c 2
 232 215 l 1
 500 1378 l 2
 504 1394 509 1403 520 1403 c 2
EndSplineSet
EndChar

StartChar: oe
Encoding: 339 339 410
Width: 531
VWidth: 1104
Flags: HMW
LayerCount: 2
Fore
SplineSet
-8 221 m 2
 133 831 l 2
 172 998 228 1060 300 1060 c 0
 372 1060 391 998 352 831 c 2
 211 221 l 2
 172 54 125 -10 53 -10 c 0
 -19 -10 -47 54 -8 221 c 2
20 208 m 2
 -8 87 5 18 59 18 c 0
 113 18 158 87 186 208 c 2
 333 843 l 2
 361 964 347 1032 293 1032 c 0
 239 1032 195 964 167 843 c 2
 20 208 l 2
438 388 m 0
 365 110 334 -10 246 -10 c 0
 173 -10 169 80 210 258 c 2
 333 793 l 2
 373 965 418 1060 494 1060 c 0
 566 1060 566 979 537 824 c 0
 514 698 502 648 473 522 c 4
 470 510 456 497 442 497 c 6
 272 497 l 1
 278 523 l 1
 446 523 l 1
 547 970 541 1033 487 1033 c 0
 431 1033 386 935 356 805 c 2
 227 245 l 2
 196 111 197 17 253 17 c 0
 312 17 344 115 417 390 c 0
 419 397 424 406 431 406 c 2
 432 406 l 2
 439 406 440 396 438 388 c 0
EndSplineSet
EndChar

StartChar: OE
Encoding: 338 338 411
Width: 596
VWidth: 1920
Flags: HMW
LayerCount: 2
Fore
SplineSet
438 1400 m 262
 530 1400 l 262
 534 1400 535 1399 534 1395 c 262
 213 5 l 262
 212 1 211 0 207 0 c 262
 115 0 l 262
 -8 0 -36 125 22 378 c 262
 173 1031 l 262
 231 1284 295 1400 438 1400 c 262
431 1370 m 262
 307 1370 252 1245 204 1036 c 262
 51 374 l 262
 3 165 19 30 122 30 c 262
 189 30 l 261
 498 1370 l 261
 431 1370 l 262
EndSplineSet
Refer: 16 69 N 1 0 0 1 226 0 2
EndChar

StartChar: Tbar
Encoding: 358 358 413
Width: 369
VWidth: 1920
Flags: HMW
LayerCount: 2
Fore
SplineSet
53 715 m 14
 53 717 l 22
 53 725 60 731 69 731 c 14
 396 731 l 22
 406 731 413 725 413 717 c 14
 413 715 l 22
 413 707 406 701 396 701 c 14
 69 701 l 22
 60 701 53 707 53 715 c 14
EndSplineSet
Refer: 31 84 N 1 0 0 1 0 0 2
EndChar

StartChar: tbar
Encoding: 359 359 414
Width: 215
VWidth: 1920
Flags: HMW
LayerCount: 2
Fore
SplineSet
53 645 m 14
 53 647 l 22
 53 655 60 661 69 661 c 14
 217 661 l 22
 227 661 234 655 234 647 c 14
 234 645 l 22
 234 637 227 631 217 631 c 14
 69 631 l 22
 60 631 53 637 53 645 c 14
EndSplineSet
Refer: 57 116 N 1 0 0 1 0 0 2
EndChar

StartChar: florin
Encoding: 402 402 415
Width: 168
VWidth: 1104
Flags: HMW
LayerCount: 2
Fore
SplineSet
317 1025 m 2
 163 1025 l 2
 156 1025 153 1030 153 1036 c 2
 153 1038 l 2
 153 1044 157 1050 163 1050 c 2
 320 1050 l 2
 327 1050 332 1045.7734375 332 1039 c 2
 332 1037 l 2
 332 1030 324 1025 317 1025 c 2
212 1135 m 2
 261 1347 301 1447 350 1447 c 0
 419 1447 357.257723106 1276.14430776 320 1183 c 0
 318 1178 317 1174 311 1174 c 2
 310 1174 l 2
 305.912109375 1174 302 1179 304 1183 c 0
 343 1275 388 1421 348 1421 c 0
 315 1421 287 1331 242 1136 c 2
 219 1037 l 2
 217 1030 214 1027 207 1027 c 2
 197 1027 l 2
 190 1027 187 1030 189 1037 c 2
 212 1135 l 2
-34 -59 m 2
 -83 -271 -123 -371 -172 -371 c 0
 -241 -371 -182 -199 -142 -107 c 0
 -140 -102 -137.48046875 -98 -133 -98 c 2
 -132 -98 l 2
 -127 -98 -124.254557404 -102.882545672 -126 -107 c 0
 -165 -199 -210 -345 -170 -345 c 0
 -137 -345 -109 -255 -64 -60 c 2
 190 1038 l 2
 192 1045 195 1048 202 1048 c 2
 212 1048 l 2
 219 1048 222 1045 220 1038 c 2
 -34 -59 l 2
EndSplineSet
EndChar

StartChar: uni0394
Encoding: 916 916 430
Width: 393
VWidth: 960
Flags: HMW
LayerCount: 2
Fore
SplineSet
-70 0 m 6
 -79 0 -80 8 -76 20 c 2
 367 1387 l 2
 370 1396 379 1404 391 1404 c 2
 398 1404 l 2
 410 1404 414 1396 413 1388 c 2
 239 19 l 2
 237 6 233 0 219 0 c 6
 -70 0 l 6
-46 30 m 1
 204 30 l 1
 381 1345 l 1
 -46 30 l 1
EndSplineSet
EndChar

StartChar: uni03A9
Encoding: 937 937 431
Width: 498
VWidth: 1920
Flags: HMW
LayerCount: 2
Fore
SplineSet
160 38 m 0
 258 150 326 314 370 504 c 2
 495 1045 l 2
 541 1244 539 1387 427 1387 c 0
 315 1387 246 1244 200 1045 c 2
 75 504 l 2
 31 314 25 148 73 37 c 0
 76 31 78 22 77 16 c 6
 76 15 l 2
 75 9 71 0 57 0 c 2
 -53 0 l 2
 -67 0 -74 5 -72 14 c 2
 -72 15 l 2
 -70 24 -60 30 -46 30 c 2
 51 30 l 1
 -1 154 4 326 50 524 c 2
 169 1041 l 2
 225 1284 293 1417 434 1417 c 0
 575 1417 580 1284 524 1041 c 2
 405 524 l 2
 359 326 284 154 175 30 c 1
 274 30 l 2
 285 30 289 24 287 15 c 2
 287 14 l 2
 285 5 278 0 267 0 c 2
 157 0 l 2
 143 0 139 6 141 13 c 2
 142 16 l 2
 143 22 153 30 160 38 c 0
EndSplineSet
EndChar

StartChar: pi
Encoding: 960 960 432
Width: 407
VWidth: 1920
Flags: HMW
LayerCount: 2
Fore
SplineSet
244 1030 m 2
 9 15 l 2
 6 4 0 -3 -8 -3 c 2
 -10 -3 l 2
 -18 -3 -24 4 -21 15 c 2
 214 1030 l 2
 215 1034 217 1035 221 1035 c 2
 241 1035 l 2
 245 1035 245 1034 244 1030 c 2
257 17 m 2
 256 15 l 2
 254 6 246 -1 235 -3 c 0
 140 -17 131 22 155 126 c 258
 364 1030 l 2
 365 1034 365 1035 369 1035 c 2
 389 1035 l 2
 393 1035 395 1034 394 1030 c 2
 180 104 l 258
 165 40 176 16 243 30 c 0
 253 32 259 25 257 17 c 2
154 1034 m 10
 154 1035 l 18
 156 1044 165 1050 174 1050 c 10
 450 1050 l 18
 461 1050 466 1044 464 1035 c 10
 464 1034 l 18
 462 1025 454 1020 443 1020 c 10
 167 1020 l 18
 158 1020 152 1026 154 1034 c 10
EndSplineSet
EndChar

StartChar: minute
Encoding: 8242 8242 433
Width: 162
VWidth: 1920
Flags: HMW
LayerCount: 2
Fore
SplineSet
130 927 m 2
 129 927 l 2
 124 927 120 931 123 940 c 2
 287 1395 l 2
 295 1416 310 1430 323 1430 c 2
 326 1430 l 2
 338 1430 343 1414 337 1400 c 2
 145 940 l 2
 141 931 137 927 130 927 c 2
EndSplineSet
EndChar

StartChar: Euro
Encoding: 8364 8364 435
Width: 505
VWidth: 1920
Flags: HMW
LayerCount: 2
Fore
SplineSet
-12 620 m 14
 -11 622 l 22
 -9 631 -2 636 9 636 c 14
 265 636 l 18
 276 636 281 631 279 622 c 10
 278 620 l 18
 276 611 269 606 258 606 c 10
 2 606 l 22
 -9 606 -14 610 -12 620 c 14
21 763 m 14
 22 765 l 22
 24 774 31 779 42 779 c 14
 298 779 l 18
 309 779 314 774 312 765 c 10
 311 763 l 18
 309 754 302 749 291 749 c 10
 35 749 l 22
 24 749 19 753 21 763 c 14
354 343 m 256
 327 226 261 -18 119 -18 c 256
 -19 -18 0 129 53 359 c 258
 211 1042 l 258
 269 1292 322 1418 445 1418 c 256
 597 1418 559 1252 532 1136 c 256
 530 1127 523 1119 514 1119 c 258
 513 1119 l 258
 504 1119 500 1127 502 1136 c 256
 532 1269 546 1388 438 1388 c 256
 340 1388 286 1241 241 1046 c 258
 82 354 l 258
 35 149 26 12 126 12 c 256
 227 12 288 187 324 343 c 256
 326 352 334 358 343 358 c 258
 344 358 l 258
 353 358 356 352 354 343 c 256
EndSplineSet
EndChar

StartChar: uni2116
Encoding: 8470 8470 436
Width: 695
VWidth: 1920
Flags: HMW
LayerCount: 2
Fore
SplineSet
277 13 m 10
 277 15 l 18
 277 24 283 30 294 30 c 10
 481 30 l 18
 492 30 498 24 498 15 c 10
 498 13 l 18
 498 4 492 0 481 0 c 10
 294 0 l 18
 283 0 277 4 277 13 c 10
EndSplineSet
Refer: 132 8304 S 1 0 0 1 240 -295 2
Refer: 25 78 N 1 0 0 1 0 0 2
EndChar

StartChar: trademark
Encoding: 8482 8482 437
Width: 611
VWidth: 1920
Flags: HMW
LayerCount: 2
Fore
SplineSet
256 1400 m 2
 457 1400 l 2
 466 1400 472 1394 470 1386 c 2
 470 1384 l 2
 468 1376 459 1370 450 1370 c 2
 363 1370 l 257
 180 576 l 2
 177 565 170 557 163 557 c 2
 162 557 l 2
 155 557 150 565 153 576 c 2
 336 1370 l 257
 249 1370 l 2
 240 1370 235 1375 237 1384 c 2
 237 1386 l 2
 239 1395 247 1400 256 1400 c 2
543 1372 m 257
 359 576 l 2
 356 565 350 557 343 557 c 2
 342 557 l 2
 335 557 331 565 334 576 c 2
 518 1374 l 2
 521 1388 535 1400 547 1400 c 2
 550 1400 l 2
 562 1400 572 1387 570 1373 c 2
 476 670 l 257
 701 1374 l 2
 705 1388 721 1400 733 1400 c 2
 741 1400 l 2
 753 1400 761 1388 758 1374 c 2
 574 576 l 6
 571 565 562 557 555 557 c 6
 554 557 l 6
 547 557 540 565 543 576 c 6
 712 1310 l 257
 468 578 l 2
 464 567 458 557 451 557 c 2
 449 557 l 2
 442 557 438 564 439 574 c 2
 543 1372 l 257
EndSplineSet
EndChar

StartChar: partialdiff
Encoding: 8706 8706 438
Width: 432
VWidth: 1920
Flags: HMW
LayerCount: 2
Fore
SplineSet
272 856 m 256
 202 856 169 754 148 662 c 258
 41 198 l 258
 13 78 9 12 93 12 c 256
 177 12 214 121 241 236 c 258
 370 793 l 258
 461 1186 484 1352 340 1414 c 0
 331 1418 326 1426 332 1434 c 2
 334 1436 l 2
 340 1444 349 1444 358 1440 c 4
 517 1364 493 1194 392 756 c 258
 279 268 l 258
 244 118 210 -18 86 -18 c 256
 -15 -18 -23 54 6 178 c 258
 122 678 l 258
 150 800 195 886 279 886 c 256
 357 886 383 822 361 725 c 257
 332 630 l 257
 347 695 l 258
 368 787 347 856 272 856 c 256
EndSplineSet
EndChar

StartChar: summation
Encoding: 8721 8721 439
Width: 434
VWidth: 1920
Flags: HMW
LayerCount: 2
Fore
SplineSet
347 505 m 2
 -80 -330 l 1
 173 -330 l 6
 182 -330 191 -333 188 -344 c 6
 187 -346 l 6
 184 -357 175 -360 166 -360 c 6
 -104 -360 l 2
 -118 -360 -123 -351 -114 -333 c 2
 316 520 l 1
 280 1372 l 2
 279 1390 288 1400 302 1400 c 2
 572 1400 l 2
 581 1400 589 1396 587 1386 c 2
 587 1384 l 2
 585 1374 574 1370 565 1370 c 2
 312 1370 l 1
 354 535 l 2
 355 523 354 517 347 505 c 2
EndSplineSet
EndChar

StartChar: minus
Encoding: 8722 8722 440
Width: 585
Flags: HMW
LayerCount: 2
Fore
SplineSet
62 256 m 14
 62 258 l 18
 62 267 67 272 81 272 c 10
 504 272 l 18
 518 272 523 267 523 258 c 10
 523 256 l 22
 523 247 518 242 504 242 c 14
 81 242 l 22
 67 242 62 247 62 256 c 14
EndSplineSet
EndChar

StartChar: integral
Encoding: 8747 8747 441
Width: 182
VWidth: 960
Flags: HMW
LayerCount: 2
Fore
SplineSet
-36 -49 m 2
 -60 -153 -78 -195 -146 -179 c 4
 -154 -177 -163 -171 -160 -160 c 6
 -159 -158 l 6
 -156 -145 -147 -141 -138 -142 c 4
 -95 -146 -86 -133 -71 -69 c 2
 254 1337 l 2
 278 1441 289 1473 344 1466 c 0
 354 1465 362 1459 359 1448 c 2
 359 1446 l 2
 356 1435 345 1431 334 1431 c 0
 312 1431 303 1420 288 1357 c 2
 -36 -49 l 2
EndSplineSet
EndChar

StartChar: radical
Encoding: 8730 8730 443
Width: 448
VWidth: 1920
Flags: HMW
LayerCount: 2
Fore
SplineSet
323 1050 m 2
 343 1050 348 1037 344 1015 c 2
 208 178 l 1
 631 1580 l 2
 635 1593 642 1603 650 1603 c 6
 652 1603 l 6
 660 1603 663 1593 659 1580 c 2
 168 -48 l 2
 161 -71 146 -70 149 -47 c 2
 309 1020 l 1
 215 1020 l 2
 204 1020 199 1026 201 1034 c 2
 201 1036 l 2
 203 1044 211 1050 222 1050 c 2
 323 1050 l 2
EndSplineSet
EndChar

StartChar: infinity
Encoding: 8734 8734 444
Width: 696
VWidth: 1331
Flags: HMW
LayerCount: 2
Fore
SplineSet
180 482 m 4
 90 482 81 567 103 664 c 0
 125 761 174 844 264 844 c 4
 341 844 372 759 386 679 c 5
 436 759 506 844 583 844 c 4
 673 844 681 761 659 664 c 0
 637 567 589 482 499 482 c 4
 422 482 382 567 378 647 c 1
 327 567 257 482 180 482 c 4
187 512 m 4
 261 512 323 602 364 664 c 1
 353 725 331 814 257 814 c 4
 190 814 148 729 133 664 c 0
 118 600 120 512 187 512 c 4
506 512 m 4
 573 512 614 600 629 664 c 0
 644 729 643 814 576 814 c 4
 502 814 438 725 399 664 c 1
 400 603 432 512 506 512 c 4
EndSplineSet
EndChar

StartChar: product
Encoding: 8719 8719 445
Width: 590
VWidth: 1920
Flags: HMW
LayerCount: 2
Fore
SplineSet
653 1400 m 2
 667 1400 675 1387 671 1370 c 2
 360 20 l 6
 357 6 350 -3 341 -3 c 6
 337 -3 l 6
 328 -3 327 6 330 20 c 6
 641 1370 l 257
 341 1370 l 257
 30 20 l 6
 27 6 20 -3 11 -3 c 6
 7 -3 l 6
 -2 -3 -3 6 -0 20 c 6
 311 1370 l 18
 315 1387 329 1400 343 1400 c 10
 653 1400 l 2
EndSplineSet
EndChar

StartChar: uni2219
Encoding: 8729 8729 446
Width: 270
Flags: HMW
LayerCount: 2
Fore
SplineSet
95 675 m 4
 95 719 126 750 170 750 c 4
 214 750 245 719 245 675 c 4
 245 631 217 600 173 600 c 4
 129 600 95 631 95 675 c 4
EndSplineSet
EndChar

StartChar: approxequal
Encoding: 8776 8776 447
Width: 498
VWidth: 1210
Flags: HMW
LayerCount: 2
Fore
SplineSet
182 635 m 256
 121 635 84 595 63 549 c 0
 59 539 53 531 45 531 c 2
 44 531 l 2
 35 531 34 539 37 549 c 0
 55 608 119 665 189 665 c 256
 279 665 275 551 351 551 c 256
 412 551 454 598 470 637 c 0
 474 647 478 655 486 655 c 2
 487 655 l 2
 494 655 499 648 495 637 c 0
 475 576 414 521 344 521 c 256
 254 521 268 635 182 635 c 256
139 450 m 256
 78 450 41 410 20 364 c 0
 16 354 10 346 2 346 c 2
 1 346 l 2
 -8 346 -9 354 -6 364 c 0
 12 423 76 480 146 480 c 256
 236 480 232 366 308 366 c 256
 369 366 411 413 427 452 c 0
 431 462 436 470 444 470 c 2
 445 470 l 2
 452 470 456 463 452 452 c 0
 432 391 372 336 302 336 c 256
 212 336 225 450 139 450 c 256
EndSplineSet
EndChar

StartChar: notequal
Encoding: 8800 8800 448
Width: 530
VWidth: 1920
Flags: HMW
LayerCount: 2
Fore
SplineSet
491 722 m 2
 492 721 l 2
 496.5 716.5 496.735961452 709.020814886 485 697 c 2
 83 285 l 6
 73.100076053 274.853809288 63.5 273.5 59 278 c 6
 58 279 l 6
 53.5 283.5 55.100076053 292.853809288 65 303 c 6
 467 715 l 2
 478.735961452 727.020814886 486.5 726.5 491 722 c 2
EndSplineSet
Refer: 83 61 N 1 0 0 1 0 0 2
EndChar

StartChar: lessequal
Encoding: 8804 8804 449
Width: 520
VWidth: 1920
Flags: HMW
LayerCount: 2
Fore
SplineSet
5 363 m 14
 5 365 l 22
 5 374 13 379 22 379 c 14
 388 379 l 22
 398 379 405 374 405 365 c 14
 405 363 l 22
 405 354 398 349 388 349 c 14
 22 349 l 22
 13 349 5 354 5 363 c 14
EndSplineSet
Refer: 84 60 N 1 0 0 1 0 150 2
EndChar

StartChar: greaterequal
Encoding: 8805 8805 450
Width: 520
VWidth: 1920
Flags: HMW
LayerCount: 2
Fore
SplineSet
-5 363 m 14
 -5 365 l 22
 -5 374 3 379 12 379 c 14
 378 379 l 22
 388 379 395 374 395 365 c 14
 395 363 l 22
 395 354 388 349 378 349 c 14
 12 349 l 22
 3 349 -5 354 -5 363 c 14
EndSplineSet
Refer: 85 62 N 1 0 0 1 0 150 2
EndChar

StartChar: lozenge
Encoding: 9674 9674 451
Width: 650
Flags: HMW
LayerCount: 2
Fore
SplineSet
217 58 m 2
 123 702 l 2
 122 711 123 713 128 722 c 2
 511 1352 l 2
 523 1371 543 1371 546 1347 c 2
 616 722 l 2
 617 714 616 710 611 702 c 2
 242 58 l 2
 230 37 220 39 217 58 c 2
244 123 m 1
 577 712 l 1
 509 1290 l 1
 161 712 l 1
 244 123 l 1
EndSplineSet
EndChar

StartChar: uniF8EA
Encoding: 63722 63722 452
Width: 553
VWidth: 1582
Flags: HMW
LayerCount: 2
Fore
SplineSet
259 1400 m 6
 421 1400 l 6
 439 1400 449 1395 446 1384 c 6
 444 1379 l 6
 441 1368 431 1363 413 1363 c 6
 355 1363 l 5
 311 1173 l 6
 306 1150 295 1139 280 1139 c 6
 280 1139 l 6
 265 1139 260 1150 265 1173 c 6
 309 1363 l 5
 251 1363 l 6
 233 1363 223 1368 226 1379 c 6
 228 1384 l 6
 231 1395 241 1400 259 1400 c 6
496 1345 m 5
 456 1172 l 6
 451 1149 444 1139 430 1139 c 6
 428 1139 l 6
 414 1139 414 1149 419 1172 c 6
 463 1366 l 6
 468 1389 482 1404 501 1404 c 6
 505 1404 l 6
 529 1404 533 1390 536 1369 c 6
 559 1229 l 5
 650 1371 l 6
 662 1390 676 1404 691 1404 c 6
 697 1404 l 6
 710 1404 719 1397 712 1366 c 6
 668 1173 l 6
 663 1150 654 1139 639 1139 c 6
 637 1139 l 6
 622 1139 619 1150 624 1173 c 6
 660 1329 l 5
 557 1167 l 6
 548 1152 545 1148 536 1148 c 6
 535 1148 l 6
 526 1148 525 1151 523 1167 c 6
 496 1345 l 5
EndSplineSet
EndChar

StartChar: uniF8E8
Encoding: 63720 63720 453
Width: 492
Flags: HMW
LayerCount: 2
Fore
SplineSet
373 1311 m 1
 354 1232 l 1
 419 1232 l 2
 448 1232 465 1244 470 1265 c 2
 473 1278 l 2
 478 1299 467 1311 438 1311 c 2
 373 1311 l 1
447 1343 m 2
 496 1343 526 1320 516 1277 c 2
 515 1272 l 2
 505 1229 465 1211 417 1211 c 1
 419 1221 l 1
 467 1221 499 1208 489 1165 c 2
 485 1150 l 2
 481 1131 482 1120 485 1110 c 0
 486 1105 487 1101 486 1098 c 2
 486 1097 l 2
 484 1089 476 1085 465 1085 c 2
 463 1085 l 2
 451 1085 444 1090 442 1099 c 0
 437 1114 439 1134 443 1150 c 2
 448 1170 l 2
 453 1191 442 1202 413 1202 c 2
 348 1202 l 1
 326 1110 l 2
 322 1094 312 1085 300 1085 c 2
 298 1085 l 2
 286 1085 280 1094 284 1110 c 2
 330 1310 l 2
 335 1331 350 1343 371 1343 c 2
 447 1343 l 2
614 1207 m 0
 587 1092 471 999 356 999 c 0
 241 999 169 1092 196 1207 c 0
 223 1322 337 1417 452 1417 c 0
 567 1417 641 1322 614 1207 c 0
588 1207 m 0
 612 1309 548 1391 446 1391 c 0
 344 1391 245 1309 221 1207 c 0
 197 1105 260 1025 362 1025 c 0
 464 1025 564 1105 588 1207 c 0
EndSplineSet
EndChar

StartChar: uniF8E9
Encoding: 63721 63721 454
Width: 492
VWidth: 1569
Flags: HMW
LayerCount: 2
Fore
SplineSet
495 1158 m 4
 476 1113 434 1076 372 1076 c 4
 300 1076 275 1126 291 1194 c 6
 297 1223 l 6
 313 1291 362 1341 434 1341 c 4
 495 1341 515 1310 516 1274 c 4
 517 1260 507 1250 497 1250 c 6
 494 1250 l 6
 483 1250 481 1259 480 1271 c 4
 478 1294 460 1311 430 1311 c 4
 386 1311 352 1272 341 1225 c 6
 333 1192 l 6
 322 1145 334 1106 382 1106 c 4
 419 1106 445 1127 459 1158 c 4
 464 1169 471 1180 483 1180 c 6
 485 1180 l 6
 497 1180 500 1170 495 1158 c 4
614 1208 m 4
 587 1093 471 999 356 999 c 4
 241 999 169 1093 196 1208 c 4
 223 1323 337 1417 452 1417 c 4
 567 1417 641 1323 614 1208 c 4
588 1208 m 4
 611 1309 547 1391 446 1391 c 4
 345 1391 244 1309 221 1208 c 4
 198 1107 261 1025 362 1025 c 4
 463 1025 565 1107 588 1208 c 4
EndSplineSet
EndChar

StartChar: uni1E9E
Encoding: 7838 7838 457
Width: 496
VWidth: 1920
Flags: HMW
LayerCount: 2
Fore
SplineSet
228 1102 m 2
 275 1304 316 1405 426 1405 c 0
 517 1405 533 1316 538 1192 c 0
 539 1170 534 1150 527 1132 c 2
 349 712 l 1
 392 637 445 564 392 334 c 0
 343 122 268 -5 188 -5 c 0
 139 -5 113 33 103 88 c 0
 101 100 97 116 98 122 c 2
 98 123 l 2
 101 137 115 148 121 129 c 0
 135 77 144 25 195 25 c 0
 253 25 323 165 362 334 c 0
 408 532 388 589 323 684 c 0
 315 696 314 708 320 722 c 2
 506 1152 l 1
 515 1238 498 1375 419 1375 c 0
 325 1375 297 1268 256 1092 c 2
 7 15 l 2
 5 6 -2 -3 -11 -3 c 2
 -12 -3 l 2
 -21 -3 -25 6 -23 15 c 2
 228 1102 l 2
EndSplineSet
EndChar
